M48
;GenerationSoftware,Autodesk,EAGLE,9.7.0*%
;CreationDate,2022-03-16T08:08:34Z*%
FMAT,2
ICI,OFF
INCH,TZ,00.0000
T7C0.0118
T6C0.0138
T5C0.0400
T4C0.0591
T3C0.0984
T2C0.1102
%
G90
M72
T2
X1001Y2520
X19999Y2005
X18000Y22513
T3
X7146Y19043
X13839Y19044
T4
X5539Y1827
X6012Y5173
X14988Y5173
X16898Y4189
X4102Y2811
X4102Y4189
X15461Y1827
T5
X1000Y18500
X1000Y17500
X1000Y16500
X1000Y15500
X1000Y14500
X1000Y13000
X1000Y12000
X1000Y10000
X20000Y14500
X1000Y9000
X1000Y8000
X1000Y7000
X1000Y6000
X1000Y5000
X1000Y4000
X20000Y7500
X20000Y8500
X20000Y9500
X20000Y10500
X20000Y11500
X20000Y12500
X20000Y13500
X1000Y11000
X20000Y16500
X20000Y17500
X20000Y18500
X20000Y19500
X20000Y20500
X20000Y21500
X1000Y21500
X1000Y20500
X1000Y19500
T6
X4500Y11000
X12500Y11500
X12292Y7958
X15500Y15500
X9000Y8250
X7250Y8250
X2000Y18000
X2000Y14000
X5900Y12300
X6800Y11400
X6300Y9800
X6700Y10500
X11500Y11500
X10750Y11500
X2750Y16750
X3250Y16250
X3750Y15750
X16250Y11750
X16250Y9250
X3100Y6700
X3900Y5900
X12750Y10500
T7
X4500Y12164
X4500Y11846
M30