G04 EAGLE Gerber RS-274X export*
G75*
%MOIN*%
%FSLAX24Y24*%
%LPD*%
%IN*%
%IPPOS*%
%AMOC8*
5,1,8,0,0,1.08239X$1,22.5*%
G01*
G04 Define Apertures*
%ADD10C,0.010000*%
%ADD11C,0.003937*%
%ADD12C,0.000000*%
%ADD13C,0.010000*%
D10*
X1000Y0D02*
X0Y1000D01*
X0Y22500D01*
X1500Y24000D01*
X19500Y24000D01*
X21000Y22500D01*
X21000Y1000D01*
X20000Y0D01*
X1000Y0D01*
D11*
X8130Y13921D02*
X12855Y13921D01*
X8130Y13921D02*
X8100Y13919D01*
X8071Y13914D01*
X8043Y13904D01*
X8016Y13892D01*
X7991Y13876D01*
X7968Y13857D01*
X7948Y13835D01*
X7931Y13811D01*
X7916Y13785D01*
X7906Y13758D01*
X7898Y13729D01*
X7894Y13700D01*
X7894Y13670D01*
X7898Y13641D01*
X7906Y13612D01*
X7916Y13585D01*
X7931Y13559D01*
X7948Y13535D01*
X7968Y13513D01*
X7991Y13494D01*
X8016Y13478D01*
X8043Y13466D01*
X8071Y13456D01*
X8100Y13451D01*
X8130Y13449D01*
X12855Y13449D01*
X12885Y13451D01*
X12914Y13456D01*
X12942Y13466D01*
X12969Y13478D01*
X12994Y13494D01*
X13017Y13513D01*
X13037Y13535D01*
X13054Y13559D01*
X13069Y13585D01*
X13079Y13612D01*
X13087Y13641D01*
X13091Y13670D01*
X13091Y13700D01*
X13087Y13729D01*
X13079Y13758D01*
X13069Y13785D01*
X13054Y13811D01*
X13037Y13835D01*
X13017Y13857D01*
X12994Y13876D01*
X12969Y13892D01*
X12942Y13904D01*
X12914Y13914D01*
X12885Y13919D01*
X12855Y13921D01*
D12*
X6654Y19043D02*
X6656Y19087D01*
X6662Y19131D01*
X6672Y19174D01*
X6685Y19216D01*
X6703Y19256D01*
X6724Y19295D01*
X6748Y19332D01*
X6775Y19367D01*
X6806Y19399D01*
X6839Y19428D01*
X6875Y19454D01*
X6913Y19476D01*
X6953Y19495D01*
X6994Y19511D01*
X7037Y19523D01*
X7080Y19531D01*
X7124Y19535D01*
X7168Y19535D01*
X7212Y19531D01*
X7255Y19523D01*
X7298Y19511D01*
X7339Y19495D01*
X7379Y19476D01*
X7417Y19454D01*
X7453Y19428D01*
X7486Y19399D01*
X7517Y19367D01*
X7544Y19332D01*
X7568Y19295D01*
X7589Y19256D01*
X7607Y19216D01*
X7620Y19174D01*
X7630Y19131D01*
X7636Y19087D01*
X7638Y19043D01*
X7636Y18999D01*
X7630Y18955D01*
X7620Y18912D01*
X7607Y18870D01*
X7589Y18830D01*
X7568Y18791D01*
X7544Y18754D01*
X7517Y18719D01*
X7486Y18687D01*
X7453Y18658D01*
X7417Y18632D01*
X7379Y18610D01*
X7339Y18591D01*
X7298Y18575D01*
X7255Y18563D01*
X7212Y18555D01*
X7168Y18551D01*
X7124Y18551D01*
X7080Y18555D01*
X7037Y18563D01*
X6994Y18575D01*
X6953Y18591D01*
X6913Y18610D01*
X6875Y18632D01*
X6839Y18658D01*
X6806Y18687D01*
X6775Y18719D01*
X6748Y18754D01*
X6724Y18791D01*
X6703Y18830D01*
X6685Y18870D01*
X6672Y18912D01*
X6662Y18955D01*
X6656Y18999D01*
X6654Y19043D01*
X13347Y19044D02*
X13349Y19088D01*
X13355Y19132D01*
X13365Y19175D01*
X13378Y19217D01*
X13396Y19257D01*
X13417Y19296D01*
X13441Y19333D01*
X13468Y19368D01*
X13499Y19400D01*
X13532Y19429D01*
X13568Y19455D01*
X13606Y19477D01*
X13646Y19496D01*
X13687Y19512D01*
X13730Y19524D01*
X13773Y19532D01*
X13817Y19536D01*
X13861Y19536D01*
X13905Y19532D01*
X13948Y19524D01*
X13991Y19512D01*
X14032Y19496D01*
X14072Y19477D01*
X14110Y19455D01*
X14146Y19429D01*
X14179Y19400D01*
X14210Y19368D01*
X14237Y19333D01*
X14261Y19296D01*
X14282Y19257D01*
X14300Y19217D01*
X14313Y19175D01*
X14323Y19132D01*
X14329Y19088D01*
X14331Y19044D01*
X14329Y19000D01*
X14323Y18956D01*
X14313Y18913D01*
X14300Y18871D01*
X14282Y18831D01*
X14261Y18792D01*
X14237Y18755D01*
X14210Y18720D01*
X14179Y18688D01*
X14146Y18659D01*
X14110Y18633D01*
X14072Y18611D01*
X14032Y18592D01*
X13991Y18576D01*
X13948Y18564D01*
X13905Y18556D01*
X13861Y18552D01*
X13817Y18552D01*
X13773Y18556D01*
X13730Y18564D01*
X13687Y18576D01*
X13646Y18592D01*
X13606Y18611D01*
X13568Y18633D01*
X13532Y18659D01*
X13499Y18688D01*
X13468Y18720D01*
X13441Y18755D01*
X13417Y18792D01*
X13396Y18831D01*
X13378Y18871D01*
X13365Y18913D01*
X13355Y18956D01*
X13349Y19000D01*
X13347Y19044D01*
X450Y2520D02*
X452Y2567D01*
X458Y2613D01*
X468Y2659D01*
X481Y2704D01*
X499Y2747D01*
X520Y2789D01*
X544Y2829D01*
X572Y2866D01*
X603Y2901D01*
X637Y2934D01*
X673Y2963D01*
X712Y2989D01*
X753Y3012D01*
X796Y3031D01*
X840Y3047D01*
X885Y3059D01*
X931Y3067D01*
X978Y3071D01*
X1024Y3071D01*
X1071Y3067D01*
X1117Y3059D01*
X1162Y3047D01*
X1206Y3031D01*
X1249Y3012D01*
X1290Y2989D01*
X1329Y2963D01*
X1365Y2934D01*
X1399Y2901D01*
X1430Y2866D01*
X1458Y2829D01*
X1482Y2789D01*
X1503Y2747D01*
X1521Y2704D01*
X1534Y2659D01*
X1544Y2613D01*
X1550Y2567D01*
X1552Y2520D01*
X1550Y2473D01*
X1544Y2427D01*
X1534Y2381D01*
X1521Y2336D01*
X1503Y2293D01*
X1482Y2251D01*
X1458Y2211D01*
X1430Y2174D01*
X1399Y2139D01*
X1365Y2106D01*
X1329Y2077D01*
X1290Y2051D01*
X1249Y2028D01*
X1206Y2009D01*
X1162Y1993D01*
X1117Y1981D01*
X1071Y1973D01*
X1024Y1969D01*
X978Y1969D01*
X931Y1973D01*
X885Y1981D01*
X840Y1993D01*
X796Y2009D01*
X753Y2028D01*
X712Y2051D01*
X673Y2077D01*
X637Y2106D01*
X603Y2139D01*
X572Y2174D01*
X544Y2211D01*
X520Y2251D01*
X499Y2293D01*
X481Y2336D01*
X468Y2381D01*
X458Y2427D01*
X452Y2473D01*
X450Y2520D01*
X19448Y2005D02*
X19450Y2052D01*
X19456Y2098D01*
X19466Y2144D01*
X19479Y2189D01*
X19497Y2232D01*
X19518Y2274D01*
X19542Y2314D01*
X19570Y2351D01*
X19601Y2386D01*
X19635Y2419D01*
X19671Y2448D01*
X19710Y2474D01*
X19751Y2497D01*
X19794Y2516D01*
X19838Y2532D01*
X19883Y2544D01*
X19929Y2552D01*
X19976Y2556D01*
X20022Y2556D01*
X20069Y2552D01*
X20115Y2544D01*
X20160Y2532D01*
X20204Y2516D01*
X20247Y2497D01*
X20288Y2474D01*
X20327Y2448D01*
X20363Y2419D01*
X20397Y2386D01*
X20428Y2351D01*
X20456Y2314D01*
X20480Y2274D01*
X20501Y2232D01*
X20519Y2189D01*
X20532Y2144D01*
X20542Y2098D01*
X20548Y2052D01*
X20550Y2005D01*
X20548Y1958D01*
X20542Y1912D01*
X20532Y1866D01*
X20519Y1821D01*
X20501Y1778D01*
X20480Y1736D01*
X20456Y1696D01*
X20428Y1659D01*
X20397Y1624D01*
X20363Y1591D01*
X20327Y1562D01*
X20288Y1536D01*
X20247Y1513D01*
X20204Y1494D01*
X20160Y1478D01*
X20115Y1466D01*
X20069Y1458D01*
X20022Y1454D01*
X19976Y1454D01*
X19929Y1458D01*
X19883Y1466D01*
X19838Y1478D01*
X19794Y1494D01*
X19751Y1513D01*
X19710Y1536D01*
X19671Y1562D01*
X19635Y1591D01*
X19601Y1624D01*
X19570Y1659D01*
X19542Y1696D01*
X19518Y1736D01*
X19497Y1778D01*
X19479Y1821D01*
X19466Y1866D01*
X19456Y1912D01*
X19450Y1958D01*
X19448Y2005D01*
X17449Y22513D02*
X17451Y22560D01*
X17457Y22606D01*
X17467Y22652D01*
X17480Y22697D01*
X17498Y22740D01*
X17519Y22782D01*
X17543Y22822D01*
X17571Y22859D01*
X17602Y22894D01*
X17636Y22927D01*
X17672Y22956D01*
X17711Y22982D01*
X17752Y23005D01*
X17795Y23024D01*
X17839Y23040D01*
X17884Y23052D01*
X17930Y23060D01*
X17977Y23064D01*
X18023Y23064D01*
X18070Y23060D01*
X18116Y23052D01*
X18161Y23040D01*
X18205Y23024D01*
X18248Y23005D01*
X18289Y22982D01*
X18328Y22956D01*
X18364Y22927D01*
X18398Y22894D01*
X18429Y22859D01*
X18457Y22822D01*
X18481Y22782D01*
X18502Y22740D01*
X18520Y22697D01*
X18533Y22652D01*
X18543Y22606D01*
X18549Y22560D01*
X18551Y22513D01*
X18549Y22466D01*
X18543Y22420D01*
X18533Y22374D01*
X18520Y22329D01*
X18502Y22286D01*
X18481Y22244D01*
X18457Y22204D01*
X18429Y22167D01*
X18398Y22132D01*
X18364Y22099D01*
X18328Y22070D01*
X18289Y22044D01*
X18248Y22021D01*
X18205Y22002D01*
X18161Y21986D01*
X18116Y21974D01*
X18070Y21966D01*
X18023Y21962D01*
X17977Y21962D01*
X17930Y21966D01*
X17884Y21974D01*
X17839Y21986D01*
X17795Y22002D01*
X17752Y22021D01*
X17711Y22044D01*
X17672Y22070D01*
X17636Y22099D01*
X17602Y22132D01*
X17571Y22167D01*
X17543Y22204D01*
X17519Y22244D01*
X17498Y22286D01*
X17480Y22329D01*
X17467Y22374D01*
X17457Y22420D01*
X17451Y22466D01*
X17449Y22513D01*
D13*
X0Y1000D02*
X1000Y0D01*
X20000Y0D01*
X21000Y1000D01*
X21000Y22500D01*
X19500Y24000D01*
X1500Y24000D01*
X0Y22500D01*
X0Y1000D01*
X8130Y13449D02*
X12855Y13449D01*
X12875Y13450D01*
X12896Y13452D01*
X12916Y13457D01*
X12935Y13463D01*
X12954Y13471D01*
X12973Y13480D01*
X12990Y13492D01*
X13006Y13504D01*
X13022Y13518D01*
X13036Y13533D01*
X13048Y13550D01*
X13059Y13567D01*
X13069Y13585D01*
X13077Y13604D01*
X13083Y13624D01*
X13087Y13644D01*
X13090Y13664D01*
X13091Y13685D01*
X13090Y13706D01*
X13087Y13726D01*
X13083Y13746D01*
X13077Y13766D01*
X13069Y13785D01*
X13059Y13803D01*
X13048Y13821D01*
X13036Y13837D01*
X13022Y13852D01*
X13006Y13866D01*
X12990Y13879D01*
X12973Y13890D01*
X12954Y13899D01*
X12935Y13907D01*
X12916Y13913D01*
X12896Y13918D01*
X12875Y13920D01*
X12855Y13921D01*
X8130Y13921D01*
X8110Y13920D01*
X8089Y13918D01*
X8069Y13913D01*
X8049Y13907D01*
X8030Y13899D01*
X8012Y13890D01*
X7995Y13879D01*
X7978Y13866D01*
X7963Y13852D01*
X7949Y13837D01*
X7937Y13821D01*
X7926Y13803D01*
X7916Y13785D01*
X7908Y13766D01*
X7902Y13746D01*
X7898Y13726D01*
X7895Y13706D01*
X7894Y13685D01*
X7895Y13664D01*
X7898Y13644D01*
X7902Y13624D01*
X7908Y13604D01*
X7916Y13585D01*
X7926Y13567D01*
X7937Y13550D01*
X7949Y13533D01*
X7963Y13518D01*
X7978Y13504D01*
X7995Y13492D01*
X8012Y13480D01*
X8030Y13471D01*
X8049Y13463D01*
X8069Y13457D01*
X8089Y13452D01*
X8110Y13450D01*
X8130Y13449D01*
M02*
