G04 EAGLE Gerber RS-274X export*
G75*
%MOIN*%
%FSLAX24Y24*%
%LPD*%
%INSilkscreen Bottom*%
%IPPOS*%
%AMOC8*
5,1,8,0,0,1.08239X$1,22.5*%
G01*
G04 Define Apertures*
%ADD10C,0.012000*%
%ADD11C,0.016000*%
D10*
X12708Y19010D02*
X12710Y19077D01*
X12716Y19144D01*
X12726Y19210D01*
X12739Y19276D01*
X12757Y19341D01*
X12778Y19404D01*
X12803Y19466D01*
X12832Y19527D01*
X12864Y19586D01*
X12899Y19643D01*
X12938Y19697D01*
X12980Y19750D01*
X13025Y19800D01*
X13073Y19847D01*
X13123Y19891D01*
X13176Y19932D01*
X13231Y19970D01*
X13289Y20005D01*
X13348Y20036D01*
X13409Y20063D01*
X13472Y20088D01*
X13536Y20108D01*
X13601Y20124D01*
X13666Y20137D01*
X13733Y20146D01*
X13800Y20151D01*
X13867Y20152D01*
X13934Y20149D01*
X14000Y20142D01*
X14067Y20131D01*
X14132Y20117D01*
X14197Y20098D01*
X14260Y20076D01*
X14322Y20050D01*
X14382Y20021D01*
X14440Y19988D01*
X14497Y19951D01*
X14551Y19912D01*
X14602Y19869D01*
X14652Y19823D01*
X14698Y19775D01*
X14741Y19724D01*
X14782Y19670D01*
X14819Y19615D01*
X14853Y19557D01*
X14883Y19497D01*
X14910Y19435D01*
X14933Y19372D01*
X14952Y19308D01*
X14968Y19243D01*
X14980Y19177D01*
X14988Y19110D01*
X14992Y19044D01*
X14992Y18976D01*
X14988Y18910D01*
X14980Y18843D01*
X14968Y18777D01*
X14952Y18712D01*
X14933Y18648D01*
X14910Y18585D01*
X14883Y18523D01*
X14853Y18463D01*
X14819Y18405D01*
X14782Y18350D01*
X14741Y18296D01*
X14698Y18245D01*
X14652Y18197D01*
X14602Y18151D01*
X14551Y18108D01*
X14497Y18069D01*
X14440Y18032D01*
X14382Y17999D01*
X14322Y17970D01*
X14260Y17944D01*
X14197Y17922D01*
X14132Y17903D01*
X14067Y17889D01*
X14000Y17878D01*
X13934Y17871D01*
X13867Y17868D01*
X13800Y17869D01*
X13733Y17874D01*
X13666Y17883D01*
X13601Y17896D01*
X13536Y17912D01*
X13472Y17932D01*
X13409Y17957D01*
X13348Y17984D01*
X13289Y18015D01*
X13231Y18050D01*
X13176Y18088D01*
X13123Y18129D01*
X13073Y18173D01*
X13025Y18220D01*
X12980Y18270D01*
X12938Y18323D01*
X12899Y18377D01*
X12864Y18434D01*
X12832Y18493D01*
X12803Y18554D01*
X12778Y18616D01*
X12757Y18679D01*
X12739Y18744D01*
X12726Y18810D01*
X12716Y18876D01*
X12710Y18943D01*
X12708Y19010D01*
X5989Y18980D02*
X5991Y19047D01*
X5997Y19114D01*
X6007Y19180D01*
X6020Y19246D01*
X6038Y19310D01*
X6059Y19374D01*
X6084Y19436D01*
X6113Y19497D01*
X6145Y19555D01*
X6180Y19612D01*
X6219Y19667D01*
X6261Y19719D01*
X6306Y19769D01*
X6353Y19816D01*
X6404Y19860D01*
X6457Y19901D01*
X6512Y19939D01*
X6569Y19974D01*
X6628Y20005D01*
X6689Y20033D01*
X6752Y20057D01*
X6816Y20077D01*
X6881Y20093D01*
X6947Y20106D01*
X7013Y20115D01*
X7080Y20120D01*
X7147Y20121D01*
X7214Y20118D01*
X7280Y20111D01*
X7346Y20100D01*
X7412Y20086D01*
X7476Y20067D01*
X7539Y20045D01*
X7601Y20019D01*
X7661Y19990D01*
X7720Y19957D01*
X7776Y19920D01*
X7830Y19881D01*
X7882Y19838D01*
X7931Y19793D01*
X7977Y19744D01*
X8021Y19693D01*
X8061Y19640D01*
X8098Y19584D01*
X8132Y19526D01*
X8162Y19466D01*
X8189Y19405D01*
X8212Y19342D01*
X8231Y19278D01*
X8247Y19213D01*
X8259Y19147D01*
X8267Y19080D01*
X8271Y19013D01*
X8271Y18947D01*
X8267Y18880D01*
X8259Y18813D01*
X8247Y18747D01*
X8231Y18682D01*
X8212Y18618D01*
X8189Y18555D01*
X8162Y18494D01*
X8132Y18434D01*
X8098Y18376D01*
X8061Y18320D01*
X8021Y18267D01*
X7977Y18216D01*
X7931Y18167D01*
X7882Y18122D01*
X7830Y18079D01*
X7776Y18040D01*
X7720Y18003D01*
X7661Y17970D01*
X7601Y17941D01*
X7539Y17915D01*
X7476Y17893D01*
X7412Y17874D01*
X7346Y17860D01*
X7280Y17849D01*
X7214Y17842D01*
X7147Y17839D01*
X7080Y17840D01*
X7013Y17845D01*
X6947Y17854D01*
X6881Y17867D01*
X6816Y17883D01*
X6752Y17903D01*
X6689Y17927D01*
X6628Y17955D01*
X6569Y17986D01*
X6512Y18021D01*
X6457Y18059D01*
X6404Y18100D01*
X6353Y18144D01*
X6306Y18191D01*
X6261Y18241D01*
X6219Y18293D01*
X6180Y18348D01*
X6145Y18405D01*
X6113Y18463D01*
X6084Y18524D01*
X6059Y18586D01*
X6038Y18650D01*
X6020Y18714D01*
X6007Y18780D01*
X5997Y18846D01*
X5991Y18913D01*
X5989Y18980D01*
X13830Y17590D02*
X13904Y17591D01*
X13977Y17597D01*
X14050Y17606D01*
X14122Y17619D01*
X14194Y17635D01*
X14265Y17656D01*
X14334Y17680D01*
X14402Y17707D01*
X14469Y17739D01*
X14534Y17773D01*
X14597Y17811D01*
X14658Y17852D01*
X14716Y17897D01*
X14773Y17944D01*
X14826Y17994D01*
X14877Y18047D01*
X14926Y18103D01*
X14971Y18161D01*
X15013Y18221D01*
X15052Y18284D01*
X15087Y18348D01*
X15119Y18414D01*
X15148Y18482D01*
X15173Y18551D01*
X15195Y18622D01*
X15212Y18693D01*
X15226Y18765D01*
X15236Y18838D01*
X15243Y18911D01*
X15245Y18985D01*
X15244Y19059D01*
X15238Y19132D01*
X15229Y19205D01*
X15216Y19277D01*
X15200Y19349D01*
X15179Y19420D01*
X15155Y19489D01*
X15128Y19557D01*
X15096Y19624D01*
X15062Y19689D01*
X15024Y19752D01*
X14983Y19813D01*
X14938Y19871D01*
X14891Y19928D01*
X14841Y19981D01*
X14788Y20032D01*
X14732Y20081D01*
X14674Y20126D01*
X14614Y20168D01*
X14551Y20207D01*
X14487Y20242D01*
X14421Y20274D01*
X14353Y20303D01*
X14284Y20328D01*
X14213Y20350D01*
X14142Y20367D01*
X14070Y20381D01*
X13997Y20391D01*
X13924Y20398D01*
X13850Y20400D01*
X7240Y20410D02*
X7165Y20412D01*
X7090Y20410D01*
X7016Y20404D01*
X6942Y20394D01*
X6868Y20380D01*
X6795Y20362D01*
X6724Y20340D01*
X6653Y20315D01*
X6584Y20286D01*
X6517Y20253D01*
X6451Y20217D01*
X6387Y20177D01*
X6326Y20134D01*
X6267Y20088D01*
X6210Y20039D01*
X6157Y19987D01*
X6105Y19932D01*
X6057Y19875D01*
X6012Y19815D01*
X5971Y19753D01*
X5932Y19689D01*
X5897Y19622D01*
X5865Y19554D01*
X5838Y19485D01*
X5813Y19414D01*
X5793Y19342D01*
X5776Y19269D01*
X5764Y19195D01*
X5755Y19121D01*
X5750Y19046D01*
X5749Y18971D01*
X5752Y18896D01*
X5759Y18822D01*
X5770Y18748D01*
X5785Y18674D01*
X5803Y18602D01*
X5826Y18530D01*
X5852Y18460D01*
X5882Y18391D01*
X5915Y18324D01*
X5952Y18259D01*
X5992Y18196D01*
X6036Y18135D01*
X6083Y18076D01*
X6132Y18020D01*
X6185Y17967D01*
X6240Y17916D01*
X6298Y17869D01*
X6358Y17825D01*
X6421Y17783D01*
X6486Y17746D01*
X6552Y17711D01*
X6621Y17681D01*
X6690Y17653D01*
X6762Y17630D01*
X6834Y17610D01*
X6907Y17595D01*
X6981Y17583D01*
X7055Y17575D01*
X7130Y17571D01*
X7170Y20390D02*
X13850Y20410D01*
X13800Y17570D02*
X7160Y17570D01*
D11*
X6180Y17250D02*
X4490Y20040D01*
X14810Y17260D02*
X14800Y12670D01*
X6510Y12670D01*
X6510Y17270D01*
X14810Y17270D01*
X6500Y12670D02*
X4940Y13790D01*
X6490Y15170D01*
X6110Y14821D02*
X6080Y14857D01*
X6048Y14891D01*
X6013Y14922D01*
X5975Y14950D01*
X5935Y14975D01*
X5893Y14996D01*
X5850Y15014D01*
X5805Y15028D01*
X5759Y15038D01*
X5713Y15044D01*
X5666Y15047D01*
X5619Y15046D01*
X5573Y15040D01*
X5527Y15031D01*
X5481Y15018D01*
X5438Y15002D01*
X5395Y14981D01*
X5355Y14958D01*
X5317Y14931D01*
X5281Y14900D01*
X5247Y14867D01*
X5217Y14832D01*
X5189Y14794D01*
X5165Y14754D01*
X5145Y14711D01*
X5128Y14668D01*
X5114Y14623D01*
X5105Y14577D01*
X5099Y14530D01*
X5097Y14483D01*
X5099Y14437D01*
X5105Y14390D01*
X5115Y14344D01*
X5129Y14299D01*
X5146Y14256D01*
X5167Y14214D01*
X5191Y14174D01*
X5219Y14136D01*
X5249Y14100D01*
X7146Y16250D02*
X7148Y16287D01*
X7154Y16324D01*
X7163Y16359D01*
X7177Y16394D01*
X7193Y16427D01*
X7214Y16458D01*
X7237Y16487D01*
X7263Y16513D01*
X7292Y16536D01*
X7323Y16557D01*
X7356Y16573D01*
X7391Y16587D01*
X7426Y16596D01*
X7463Y16602D01*
X7500Y16604D01*
X7537Y16602D01*
X7574Y16596D01*
X7609Y16587D01*
X7644Y16573D01*
X7677Y16557D01*
X7708Y16536D01*
X7737Y16513D01*
X7763Y16487D01*
X7786Y16458D01*
X7807Y16427D01*
X7823Y16394D01*
X7837Y16359D01*
X7846Y16324D01*
X7852Y16287D01*
X7854Y16250D01*
X7852Y16213D01*
X7846Y16176D01*
X7837Y16141D01*
X7823Y16106D01*
X7807Y16073D01*
X7786Y16042D01*
X7763Y16013D01*
X7737Y15987D01*
X7708Y15964D01*
X7677Y15943D01*
X7644Y15927D01*
X7609Y15913D01*
X7574Y15904D01*
X7537Y15898D01*
X7500Y15896D01*
X7463Y15898D01*
X7426Y15904D01*
X7391Y15913D01*
X7356Y15927D01*
X7323Y15943D01*
X7292Y15964D01*
X7263Y15987D01*
X7237Y16013D01*
X7214Y16042D01*
X7193Y16073D01*
X7177Y16106D01*
X7163Y16141D01*
X7154Y16176D01*
X7148Y16213D01*
X7146Y16250D01*
X7146Y15000D02*
X7148Y15037D01*
X7154Y15074D01*
X7163Y15109D01*
X7177Y15144D01*
X7193Y15177D01*
X7214Y15208D01*
X7237Y15237D01*
X7263Y15263D01*
X7292Y15286D01*
X7323Y15307D01*
X7356Y15323D01*
X7391Y15337D01*
X7426Y15346D01*
X7463Y15352D01*
X7500Y15354D01*
X7537Y15352D01*
X7574Y15346D01*
X7609Y15337D01*
X7644Y15323D01*
X7677Y15307D01*
X7708Y15286D01*
X7737Y15263D01*
X7763Y15237D01*
X7786Y15208D01*
X7807Y15177D01*
X7823Y15144D01*
X7837Y15109D01*
X7846Y15074D01*
X7852Y15037D01*
X7854Y15000D01*
X7852Y14963D01*
X7846Y14926D01*
X7837Y14891D01*
X7823Y14856D01*
X7807Y14823D01*
X7786Y14792D01*
X7763Y14763D01*
X7737Y14737D01*
X7708Y14714D01*
X7677Y14693D01*
X7644Y14677D01*
X7609Y14663D01*
X7574Y14654D01*
X7537Y14648D01*
X7500Y14646D01*
X7463Y14648D01*
X7426Y14654D01*
X7391Y14663D01*
X7356Y14677D01*
X7323Y14693D01*
X7292Y14714D01*
X7263Y14737D01*
X7237Y14763D01*
X7214Y14792D01*
X7193Y14823D01*
X7177Y14856D01*
X7163Y14891D01*
X7154Y14926D01*
X7148Y14963D01*
X7146Y15000D01*
X8646Y15000D02*
X8648Y15037D01*
X8654Y15074D01*
X8663Y15109D01*
X8677Y15144D01*
X8693Y15177D01*
X8714Y15208D01*
X8737Y15237D01*
X8763Y15263D01*
X8792Y15286D01*
X8823Y15307D01*
X8856Y15323D01*
X8891Y15337D01*
X8926Y15346D01*
X8963Y15352D01*
X9000Y15354D01*
X9037Y15352D01*
X9074Y15346D01*
X9109Y15337D01*
X9144Y15323D01*
X9177Y15307D01*
X9208Y15286D01*
X9237Y15263D01*
X9263Y15237D01*
X9286Y15208D01*
X9307Y15177D01*
X9323Y15144D01*
X9337Y15109D01*
X9346Y15074D01*
X9352Y15037D01*
X9354Y15000D01*
X9352Y14963D01*
X9346Y14926D01*
X9337Y14891D01*
X9323Y14856D01*
X9307Y14823D01*
X9286Y14792D01*
X9263Y14763D01*
X9237Y14737D01*
X9208Y14714D01*
X9177Y14693D01*
X9144Y14677D01*
X9109Y14663D01*
X9074Y14654D01*
X9037Y14648D01*
X9000Y14646D01*
X8963Y14648D01*
X8926Y14654D01*
X8891Y14663D01*
X8856Y14677D01*
X8823Y14693D01*
X8792Y14714D01*
X8763Y14737D01*
X8737Y14763D01*
X8714Y14792D01*
X8693Y14823D01*
X8677Y14856D01*
X8663Y14891D01*
X8654Y14926D01*
X8648Y14963D01*
X8646Y15000D01*
X8646Y16250D02*
X8648Y16287D01*
X8654Y16324D01*
X8663Y16359D01*
X8677Y16394D01*
X8693Y16427D01*
X8714Y16458D01*
X8737Y16487D01*
X8763Y16513D01*
X8792Y16536D01*
X8823Y16557D01*
X8856Y16573D01*
X8891Y16587D01*
X8926Y16596D01*
X8963Y16602D01*
X9000Y16604D01*
X9037Y16602D01*
X9074Y16596D01*
X9109Y16587D01*
X9144Y16573D01*
X9177Y16557D01*
X9208Y16536D01*
X9237Y16513D01*
X9263Y16487D01*
X9286Y16458D01*
X9307Y16427D01*
X9323Y16394D01*
X9337Y16359D01*
X9346Y16324D01*
X9352Y16287D01*
X9354Y16250D01*
X9352Y16213D01*
X9346Y16176D01*
X9337Y16141D01*
X9323Y16106D01*
X9307Y16073D01*
X9286Y16042D01*
X9263Y16013D01*
X9237Y15987D01*
X9208Y15964D01*
X9177Y15943D01*
X9144Y15927D01*
X9109Y15913D01*
X9074Y15904D01*
X9037Y15898D01*
X9000Y15896D01*
X8963Y15898D01*
X8926Y15904D01*
X8891Y15913D01*
X8856Y15927D01*
X8823Y15943D01*
X8792Y15964D01*
X8763Y15987D01*
X8737Y16013D01*
X8714Y16042D01*
X8693Y16073D01*
X8677Y16106D01*
X8663Y16141D01*
X8654Y16176D01*
X8648Y16213D01*
X8646Y16250D01*
X10146Y16250D02*
X10148Y16287D01*
X10154Y16324D01*
X10163Y16359D01*
X10177Y16394D01*
X10193Y16427D01*
X10214Y16458D01*
X10237Y16487D01*
X10263Y16513D01*
X10292Y16536D01*
X10323Y16557D01*
X10356Y16573D01*
X10391Y16587D01*
X10426Y16596D01*
X10463Y16602D01*
X10500Y16604D01*
X10537Y16602D01*
X10574Y16596D01*
X10609Y16587D01*
X10644Y16573D01*
X10677Y16557D01*
X10708Y16536D01*
X10737Y16513D01*
X10763Y16487D01*
X10786Y16458D01*
X10807Y16427D01*
X10823Y16394D01*
X10837Y16359D01*
X10846Y16324D01*
X10852Y16287D01*
X10854Y16250D01*
X10852Y16213D01*
X10846Y16176D01*
X10837Y16141D01*
X10823Y16106D01*
X10807Y16073D01*
X10786Y16042D01*
X10763Y16013D01*
X10737Y15987D01*
X10708Y15964D01*
X10677Y15943D01*
X10644Y15927D01*
X10609Y15913D01*
X10574Y15904D01*
X10537Y15898D01*
X10500Y15896D01*
X10463Y15898D01*
X10426Y15904D01*
X10391Y15913D01*
X10356Y15927D01*
X10323Y15943D01*
X10292Y15964D01*
X10263Y15987D01*
X10237Y16013D01*
X10214Y16042D01*
X10193Y16073D01*
X10177Y16106D01*
X10163Y16141D01*
X10154Y16176D01*
X10148Y16213D01*
X10146Y16250D01*
X10146Y15000D02*
X10148Y15037D01*
X10154Y15074D01*
X10163Y15109D01*
X10177Y15144D01*
X10193Y15177D01*
X10214Y15208D01*
X10237Y15237D01*
X10263Y15263D01*
X10292Y15286D01*
X10323Y15307D01*
X10356Y15323D01*
X10391Y15337D01*
X10426Y15346D01*
X10463Y15352D01*
X10500Y15354D01*
X10537Y15352D01*
X10574Y15346D01*
X10609Y15337D01*
X10644Y15323D01*
X10677Y15307D01*
X10708Y15286D01*
X10737Y15263D01*
X10763Y15237D01*
X10786Y15208D01*
X10807Y15177D01*
X10823Y15144D01*
X10837Y15109D01*
X10846Y15074D01*
X10852Y15037D01*
X10854Y15000D01*
X10852Y14963D01*
X10846Y14926D01*
X10837Y14891D01*
X10823Y14856D01*
X10807Y14823D01*
X10786Y14792D01*
X10763Y14763D01*
X10737Y14737D01*
X10708Y14714D01*
X10677Y14693D01*
X10644Y14677D01*
X10609Y14663D01*
X10574Y14654D01*
X10537Y14648D01*
X10500Y14646D01*
X10463Y14648D01*
X10426Y14654D01*
X10391Y14663D01*
X10356Y14677D01*
X10323Y14693D01*
X10292Y14714D01*
X10263Y14737D01*
X10237Y14763D01*
X10214Y14792D01*
X10193Y14823D01*
X10177Y14856D01*
X10163Y14891D01*
X10154Y14926D01*
X10148Y14963D01*
X10146Y15000D01*
X11646Y16250D02*
X11648Y16287D01*
X11654Y16324D01*
X11663Y16359D01*
X11677Y16394D01*
X11693Y16427D01*
X11714Y16458D01*
X11737Y16487D01*
X11763Y16513D01*
X11792Y16536D01*
X11823Y16557D01*
X11856Y16573D01*
X11891Y16587D01*
X11926Y16596D01*
X11963Y16602D01*
X12000Y16604D01*
X12037Y16602D01*
X12074Y16596D01*
X12109Y16587D01*
X12144Y16573D01*
X12177Y16557D01*
X12208Y16536D01*
X12237Y16513D01*
X12263Y16487D01*
X12286Y16458D01*
X12307Y16427D01*
X12323Y16394D01*
X12337Y16359D01*
X12346Y16324D01*
X12352Y16287D01*
X12354Y16250D01*
X12352Y16213D01*
X12346Y16176D01*
X12337Y16141D01*
X12323Y16106D01*
X12307Y16073D01*
X12286Y16042D01*
X12263Y16013D01*
X12237Y15987D01*
X12208Y15964D01*
X12177Y15943D01*
X12144Y15927D01*
X12109Y15913D01*
X12074Y15904D01*
X12037Y15898D01*
X12000Y15896D01*
X11963Y15898D01*
X11926Y15904D01*
X11891Y15913D01*
X11856Y15927D01*
X11823Y15943D01*
X11792Y15964D01*
X11763Y15987D01*
X11737Y16013D01*
X11714Y16042D01*
X11693Y16073D01*
X11677Y16106D01*
X11663Y16141D01*
X11654Y16176D01*
X11648Y16213D01*
X11646Y16250D01*
X11646Y15000D02*
X11648Y15037D01*
X11654Y15074D01*
X11663Y15109D01*
X11677Y15144D01*
X11693Y15177D01*
X11714Y15208D01*
X11737Y15237D01*
X11763Y15263D01*
X11792Y15286D01*
X11823Y15307D01*
X11856Y15323D01*
X11891Y15337D01*
X11926Y15346D01*
X11963Y15352D01*
X12000Y15354D01*
X12037Y15352D01*
X12074Y15346D01*
X12109Y15337D01*
X12144Y15323D01*
X12177Y15307D01*
X12208Y15286D01*
X12237Y15263D01*
X12263Y15237D01*
X12286Y15208D01*
X12307Y15177D01*
X12323Y15144D01*
X12337Y15109D01*
X12346Y15074D01*
X12352Y15037D01*
X12354Y15000D01*
X12352Y14963D01*
X12346Y14926D01*
X12337Y14891D01*
X12323Y14856D01*
X12307Y14823D01*
X12286Y14792D01*
X12263Y14763D01*
X12237Y14737D01*
X12208Y14714D01*
X12177Y14693D01*
X12144Y14677D01*
X12109Y14663D01*
X12074Y14654D01*
X12037Y14648D01*
X12000Y14646D01*
X11963Y14648D01*
X11926Y14654D01*
X11891Y14663D01*
X11856Y14677D01*
X11823Y14693D01*
X11792Y14714D01*
X11763Y14737D01*
X11737Y14763D01*
X11714Y14792D01*
X11693Y14823D01*
X11677Y14856D01*
X11663Y14891D01*
X11654Y14926D01*
X11648Y14963D01*
X11646Y15000D01*
X13146Y15000D02*
X13148Y15037D01*
X13154Y15074D01*
X13163Y15109D01*
X13177Y15144D01*
X13193Y15177D01*
X13214Y15208D01*
X13237Y15237D01*
X13263Y15263D01*
X13292Y15286D01*
X13323Y15307D01*
X13356Y15323D01*
X13391Y15337D01*
X13426Y15346D01*
X13463Y15352D01*
X13500Y15354D01*
X13537Y15352D01*
X13574Y15346D01*
X13609Y15337D01*
X13644Y15323D01*
X13677Y15307D01*
X13708Y15286D01*
X13737Y15263D01*
X13763Y15237D01*
X13786Y15208D01*
X13807Y15177D01*
X13823Y15144D01*
X13837Y15109D01*
X13846Y15074D01*
X13852Y15037D01*
X13854Y15000D01*
X13852Y14963D01*
X13846Y14926D01*
X13837Y14891D01*
X13823Y14856D01*
X13807Y14823D01*
X13786Y14792D01*
X13763Y14763D01*
X13737Y14737D01*
X13708Y14714D01*
X13677Y14693D01*
X13644Y14677D01*
X13609Y14663D01*
X13574Y14654D01*
X13537Y14648D01*
X13500Y14646D01*
X13463Y14648D01*
X13426Y14654D01*
X13391Y14663D01*
X13356Y14677D01*
X13323Y14693D01*
X13292Y14714D01*
X13263Y14737D01*
X13237Y14763D01*
X13214Y14792D01*
X13193Y14823D01*
X13177Y14856D01*
X13163Y14891D01*
X13154Y14926D01*
X13148Y14963D01*
X13146Y15000D01*
X13146Y16250D02*
X13148Y16287D01*
X13154Y16324D01*
X13163Y16359D01*
X13177Y16394D01*
X13193Y16427D01*
X13214Y16458D01*
X13237Y16487D01*
X13263Y16513D01*
X13292Y16536D01*
X13323Y16557D01*
X13356Y16573D01*
X13391Y16587D01*
X13426Y16596D01*
X13463Y16602D01*
X13500Y16604D01*
X13537Y16602D01*
X13574Y16596D01*
X13609Y16587D01*
X13644Y16573D01*
X13677Y16557D01*
X13708Y16536D01*
X13737Y16513D01*
X13763Y16487D01*
X13786Y16458D01*
X13807Y16427D01*
X13823Y16394D01*
X13837Y16359D01*
X13846Y16324D01*
X13852Y16287D01*
X13854Y16250D01*
X13852Y16213D01*
X13846Y16176D01*
X13837Y16141D01*
X13823Y16106D01*
X13807Y16073D01*
X13786Y16042D01*
X13763Y16013D01*
X13737Y15987D01*
X13708Y15964D01*
X13677Y15943D01*
X13644Y15927D01*
X13609Y15913D01*
X13574Y15904D01*
X13537Y15898D01*
X13500Y15896D01*
X13463Y15898D01*
X13426Y15904D01*
X13391Y15913D01*
X13356Y15927D01*
X13323Y15943D01*
X13292Y15964D01*
X13263Y15987D01*
X13237Y16013D01*
X13214Y16042D01*
X13193Y16073D01*
X13177Y16106D01*
X13163Y16141D01*
X13154Y16176D01*
X13148Y16213D01*
X13146Y16250D01*
M02*
