G04 EAGLE Gerber RS-274X export*
G75*
%MOIN*%
%FSLAX24Y24*%
%LPD*%
%INSoldermask Bottom*%
%IPPOS*%
%AMOC8*
5,1,8,0,0,1.08239X$1,22.5*%
G01*
G04 Define Apertures*
%ADD10C,0.106425*%
%ADD11C,0.118236*%
%ADD12C,0.082000*%
%ADD13C,0.096583*%
%ADD14C,0.037780*%
%ADD15C,0.035811*%
D10*
X7146Y19043D03*
X13839Y19044D03*
D11*
X1001Y2520D03*
X19999Y2005D03*
X18000Y22513D03*
D12*
X20000Y9500D03*
X20000Y10500D03*
X20000Y11500D03*
X20000Y12500D03*
X20000Y13500D03*
X20000Y14500D03*
X20000Y16500D03*
X20000Y17500D03*
X20000Y18500D03*
X20000Y19500D03*
X20000Y20500D03*
X20000Y21500D03*
X1000Y21500D03*
X1000Y20500D03*
X1000Y19500D03*
X1000Y18500D03*
X1000Y17500D03*
X1000Y16500D03*
X1000Y15500D03*
X1000Y14500D03*
X1000Y13000D03*
X1000Y12000D03*
X1000Y11000D03*
X1000Y10000D03*
X1000Y9000D03*
X1000Y8000D03*
X1000Y7000D03*
X1000Y6000D03*
X1000Y5000D03*
X1000Y4000D03*
X20000Y8500D03*
X20000Y7500D03*
D13*
X4102Y4189D03*
X4102Y2811D03*
X16898Y4189D03*
X14988Y5173D03*
X6012Y5173D03*
X5539Y1827D03*
X15461Y1827D03*
D14*
X4500Y11000D03*
X12500Y11500D03*
X12292Y7958D03*
X15500Y15500D03*
X9000Y8250D03*
D15*
X4500Y12164D03*
X4500Y11846D03*
D14*
X7250Y8250D03*
X12750Y10500D03*
X2000Y18000D03*
X2000Y14000D03*
X5900Y12300D03*
X6800Y11400D03*
X6300Y9800D03*
X6700Y10500D03*
X11500Y11500D03*
X10750Y11500D03*
X3900Y5900D03*
X3100Y6700D03*
X16250Y9250D03*
X16250Y11750D03*
X3750Y15750D03*
X3250Y16250D03*
X2750Y16750D03*
M02*
