G04 EAGLE Gerber RS-274X export*
G75*
%MOIN*%
%FSLAX24Y24*%
%LPD*%
%INSilkscreen Top*%
%IPPOS*%
%AMOC8*
5,1,8,0,0,1.08239X$1,22.5*%
G01*
G04 Define Apertures*
%ADD10C,0.008000*%
%ADD11C,0.010000*%
%ADD12C,0.014000*%
%ADD13C,0.006000*%
%ADD14C,0.007874*%
%ADD15C,0.005000*%
%ADD16R,0.030000X0.018000*%
%ADD17C,0.003000*%
%ADD18C,0.019685*%
%ADD19C,0.011135*%
%ADD20C,0.007000*%
%ADD21C,0.002000*%
D10*
X2540Y10110D02*
X2540Y9790D01*
X2682Y9790D01*
X2833Y9861D02*
X2833Y9932D01*
X2835Y9948D01*
X2840Y9963D01*
X2848Y9976D01*
X2860Y9988D01*
X2873Y9996D01*
X2888Y10001D01*
X2904Y10003D01*
X2920Y10001D01*
X2935Y9996D01*
X2948Y9988D01*
X2960Y9976D01*
X2968Y9963D01*
X2973Y9948D01*
X2975Y9932D01*
X2975Y9861D01*
X2973Y9845D01*
X2968Y9830D01*
X2960Y9817D01*
X2948Y9805D01*
X2935Y9797D01*
X2920Y9792D01*
X2904Y9790D01*
X2888Y9792D01*
X2873Y9797D01*
X2860Y9805D01*
X2848Y9817D01*
X2840Y9830D01*
X2835Y9845D01*
X2833Y9861D01*
X3195Y9790D02*
X3284Y9790D01*
X3195Y9790D02*
X3181Y9792D01*
X3169Y9797D01*
X3158Y9806D01*
X3149Y9817D01*
X3144Y9829D01*
X3142Y9843D01*
X3141Y9843D02*
X3141Y9950D01*
X3142Y9950D02*
X3144Y9964D01*
X3149Y9977D01*
X3158Y9987D01*
X3169Y9996D01*
X3181Y10001D01*
X3195Y10003D01*
X3284Y10003D01*
X3284Y9737D01*
X3283Y9737D02*
X3281Y9723D01*
X3276Y9710D01*
X3267Y9700D01*
X3256Y9691D01*
X3244Y9686D01*
X3230Y9684D01*
X3230Y9683D02*
X3159Y9683D01*
X3456Y9790D02*
X3456Y10003D01*
X3447Y10092D02*
X3447Y10110D01*
X3465Y10110D01*
X3465Y10092D01*
X3447Y10092D01*
X3667Y9790D02*
X3738Y9790D01*
X3667Y9790D02*
X3653Y9792D01*
X3641Y9797D01*
X3630Y9806D01*
X3621Y9817D01*
X3616Y9829D01*
X3614Y9843D01*
X3613Y9843D02*
X3613Y9950D01*
X3614Y9950D02*
X3616Y9964D01*
X3621Y9977D01*
X3630Y9987D01*
X3641Y9996D01*
X3653Y10001D01*
X3667Y10003D01*
X3738Y10003D01*
X4156Y9790D02*
X4227Y9790D01*
X4156Y9790D02*
X4140Y9792D01*
X4125Y9797D01*
X4112Y9805D01*
X4100Y9817D01*
X4092Y9830D01*
X4087Y9845D01*
X4085Y9861D01*
X4085Y10039D01*
X4087Y10055D01*
X4092Y10070D01*
X4100Y10083D01*
X4112Y10095D01*
X4125Y10103D01*
X4140Y10108D01*
X4156Y10110D01*
X4227Y10110D01*
X4381Y9932D02*
X4381Y9861D01*
X4381Y9932D02*
X4383Y9948D01*
X4388Y9963D01*
X4396Y9976D01*
X4408Y9988D01*
X4421Y9996D01*
X4436Y10001D01*
X4452Y10003D01*
X4468Y10001D01*
X4483Y9996D01*
X4496Y9988D01*
X4508Y9976D01*
X4516Y9963D01*
X4521Y9948D01*
X4523Y9932D01*
X4523Y9861D01*
X4521Y9845D01*
X4516Y9830D01*
X4508Y9817D01*
X4496Y9805D01*
X4483Y9797D01*
X4468Y9792D01*
X4452Y9790D01*
X4436Y9792D01*
X4421Y9797D01*
X4408Y9805D01*
X4396Y9817D01*
X4388Y9830D01*
X4383Y9845D01*
X4381Y9861D01*
X4705Y9790D02*
X4705Y10003D01*
X4793Y10003D01*
X4807Y10001D01*
X4819Y9996D01*
X4830Y9987D01*
X4839Y9977D01*
X4844Y9964D01*
X4846Y9950D01*
X4847Y9950D02*
X4847Y9790D01*
X5088Y9790D02*
X5017Y10003D01*
X5159Y10003D02*
X5088Y9790D01*
X5370Y9790D02*
X5459Y9790D01*
X5370Y9790D02*
X5356Y9792D01*
X5344Y9797D01*
X5333Y9806D01*
X5324Y9817D01*
X5319Y9829D01*
X5317Y9843D01*
X5317Y9932D01*
X5319Y9948D01*
X5324Y9963D01*
X5332Y9976D01*
X5344Y9988D01*
X5357Y9996D01*
X5372Y10001D01*
X5388Y10003D01*
X5404Y10001D01*
X5419Y9996D01*
X5432Y9988D01*
X5444Y9976D01*
X5452Y9963D01*
X5457Y9948D01*
X5459Y9932D01*
X5459Y9897D01*
X5317Y9897D01*
X5644Y10003D02*
X5644Y9790D01*
X5644Y10003D02*
X5751Y10003D01*
X5751Y9968D01*
X5845Y10003D02*
X5952Y10003D01*
X5881Y10110D02*
X5881Y9843D01*
X5883Y9829D01*
X5888Y9817D01*
X5897Y9806D01*
X5908Y9797D01*
X5920Y9792D01*
X5934Y9790D01*
X5952Y9790D01*
X6162Y9790D02*
X6251Y9790D01*
X6162Y9790D02*
X6148Y9792D01*
X6136Y9797D01*
X6125Y9806D01*
X6116Y9817D01*
X6111Y9829D01*
X6109Y9843D01*
X6109Y9932D01*
X6111Y9948D01*
X6116Y9963D01*
X6124Y9976D01*
X6136Y9988D01*
X6149Y9996D01*
X6164Y10001D01*
X6180Y10003D01*
X6196Y10001D01*
X6211Y9996D01*
X6224Y9988D01*
X6236Y9976D01*
X6244Y9963D01*
X6249Y9948D01*
X6251Y9932D01*
X6251Y9897D01*
X6109Y9897D01*
X6436Y10003D02*
X6436Y9790D01*
X6436Y10003D02*
X6543Y10003D01*
X6543Y9968D01*
X9160Y10800D02*
X9267Y10480D01*
X9373Y10800D01*
X9551Y10800D02*
X9551Y10480D01*
X9693Y10480D01*
X9850Y10480D02*
X9956Y10480D01*
X9972Y10482D01*
X9987Y10487D01*
X10000Y10495D01*
X10012Y10507D01*
X10020Y10520D01*
X10025Y10535D01*
X10027Y10551D01*
X10028Y10551D02*
X10028Y10587D01*
X10027Y10587D02*
X10025Y10603D01*
X10020Y10618D01*
X10012Y10631D01*
X10000Y10643D01*
X9987Y10651D01*
X9972Y10656D01*
X9956Y10658D01*
X9850Y10658D01*
X9850Y10800D01*
X10028Y10800D01*
X10210Y10480D02*
X10299Y10480D01*
X10318Y10482D01*
X10335Y10488D01*
X10351Y10497D01*
X10365Y10509D01*
X10376Y10525D01*
X10384Y10541D01*
X10388Y10560D01*
X10388Y10578D01*
X10384Y10597D01*
X10376Y10614D01*
X10365Y10629D01*
X10351Y10641D01*
X10335Y10650D01*
X10318Y10656D01*
X10299Y10658D01*
X10316Y10800D02*
X10210Y10800D01*
X10316Y10800D02*
X10332Y10798D01*
X10347Y10793D01*
X10360Y10785D01*
X10372Y10773D01*
X10380Y10760D01*
X10385Y10745D01*
X10387Y10729D01*
X10385Y10713D01*
X10380Y10698D01*
X10372Y10685D01*
X10360Y10673D01*
X10347Y10665D01*
X10332Y10660D01*
X10316Y10658D01*
X10245Y10658D01*
X10583Y10800D02*
X10583Y10480D01*
X10725Y10480D01*
X10882Y10551D02*
X10953Y10800D01*
X10882Y10551D02*
X11060Y10551D01*
X11006Y10622D02*
X11006Y10480D01*
X11311Y10480D02*
X11382Y10480D01*
X11311Y10480D02*
X11295Y10482D01*
X11280Y10487D01*
X11267Y10495D01*
X11255Y10507D01*
X11247Y10520D01*
X11242Y10535D01*
X11240Y10551D01*
X11240Y10729D01*
X11242Y10745D01*
X11247Y10760D01*
X11255Y10773D01*
X11267Y10785D01*
X11280Y10793D01*
X11295Y10798D01*
X11311Y10800D01*
X11382Y10800D01*
X11554Y10800D02*
X11554Y10480D01*
X11554Y10800D02*
X11643Y10800D01*
X11660Y10798D01*
X11677Y10793D01*
X11692Y10785D01*
X11706Y10774D01*
X11717Y10760D01*
X11725Y10745D01*
X11730Y10728D01*
X11732Y10711D01*
X11732Y10569D01*
X11730Y10552D01*
X11725Y10535D01*
X11717Y10520D01*
X11706Y10506D01*
X11692Y10495D01*
X11677Y10487D01*
X11660Y10482D01*
X11643Y10480D01*
X11554Y10480D01*
X9416Y10260D02*
X9416Y9940D01*
X9451Y9940D02*
X9380Y9940D01*
X9380Y10260D02*
X9451Y10260D01*
X9712Y10260D02*
X9728Y10258D01*
X9743Y10254D01*
X9756Y10247D01*
X9769Y10237D01*
X9779Y10224D01*
X9786Y10211D01*
X9790Y10196D01*
X9792Y10180D01*
X9712Y10260D02*
X9694Y10258D01*
X9676Y10253D01*
X9659Y10245D01*
X9644Y10235D01*
X9631Y10221D01*
X9621Y10206D01*
X9614Y10189D01*
X9766Y10118D02*
X9778Y10131D01*
X9786Y10146D01*
X9791Y10163D01*
X9793Y10180D01*
X9766Y10118D02*
X9615Y9940D01*
X9792Y9940D01*
X10044Y9940D02*
X10115Y9940D01*
X10044Y9940D02*
X10028Y9942D01*
X10013Y9947D01*
X10000Y9955D01*
X9988Y9967D01*
X9980Y9980D01*
X9975Y9995D01*
X9973Y10011D01*
X9973Y10189D01*
X9975Y10205D01*
X9980Y10220D01*
X9988Y10233D01*
X10000Y10245D01*
X10013Y10253D01*
X10028Y10258D01*
X10044Y10260D01*
X10115Y10260D01*
X10493Y10216D02*
X10481Y10188D01*
X10473Y10159D01*
X10468Y10130D01*
X10466Y10100D01*
X10494Y10215D02*
X10499Y10228D01*
X10507Y10239D01*
X10518Y10248D01*
X10529Y10254D01*
X10542Y10259D01*
X10556Y10260D01*
X10570Y10259D01*
X10583Y10254D01*
X10594Y10248D01*
X10605Y10239D01*
X10613Y10228D01*
X10618Y10215D01*
X10618Y10216D02*
X10630Y10188D01*
X10638Y10159D01*
X10643Y10130D01*
X10645Y10100D01*
X10466Y10100D02*
X10468Y10070D01*
X10473Y10041D01*
X10481Y10012D01*
X10493Y9984D01*
X10494Y9985D02*
X10499Y9972D01*
X10507Y9961D01*
X10518Y9952D01*
X10529Y9946D01*
X10542Y9941D01*
X10556Y9940D01*
X10618Y9984D02*
X10630Y10012D01*
X10638Y10041D01*
X10643Y10070D01*
X10645Y10100D01*
X10618Y9985D02*
X10613Y9972D01*
X10605Y9961D01*
X10594Y9952D01*
X10583Y9946D01*
X10570Y9941D01*
X10556Y9940D01*
X10484Y10011D02*
X10627Y10189D01*
X10808Y9940D02*
X10951Y10153D01*
X10808Y10153D02*
X10951Y9940D01*
X11212Y10260D02*
X11228Y10258D01*
X11243Y10254D01*
X11256Y10247D01*
X11269Y10237D01*
X11279Y10224D01*
X11286Y10211D01*
X11290Y10196D01*
X11292Y10180D01*
X11212Y10260D02*
X11194Y10258D01*
X11176Y10253D01*
X11159Y10245D01*
X11144Y10235D01*
X11131Y10221D01*
X11121Y10206D01*
X11114Y10189D01*
X11266Y10118D02*
X11278Y10131D01*
X11286Y10146D01*
X11291Y10163D01*
X11293Y10180D01*
X11266Y10118D02*
X11115Y9940D01*
X11292Y9940D01*
X11546Y10082D02*
X11652Y10082D01*
X11546Y10082D02*
X11530Y10084D01*
X11515Y10089D01*
X11502Y10097D01*
X11490Y10109D01*
X11482Y10122D01*
X11477Y10137D01*
X11475Y10153D01*
X11475Y10171D01*
X11477Y10190D01*
X11483Y10207D01*
X11492Y10223D01*
X11504Y10237D01*
X11520Y10248D01*
X11536Y10256D01*
X11555Y10260D01*
X11573Y10260D01*
X11592Y10256D01*
X11609Y10248D01*
X11624Y10237D01*
X11636Y10223D01*
X11645Y10207D01*
X11651Y10190D01*
X11653Y10171D01*
X11652Y10171D02*
X11652Y10082D01*
X11650Y10060D01*
X11645Y10038D01*
X11637Y10018D01*
X11625Y9999D01*
X11610Y9982D01*
X11593Y9967D01*
X11574Y9955D01*
X11554Y9947D01*
X11532Y9942D01*
X11510Y9940D01*
D11*
X6160Y6210D02*
X6160Y5810D01*
X6338Y5810D01*
X6510Y5810D02*
X6510Y6077D01*
X6498Y6188D02*
X6498Y6210D01*
X6521Y6210D01*
X6521Y6188D01*
X6498Y6188D01*
X6721Y6077D02*
X6721Y5810D01*
X6721Y6077D02*
X6832Y6077D01*
X6847Y6075D01*
X6861Y6070D01*
X6874Y6062D01*
X6884Y6052D01*
X6892Y6039D01*
X6897Y6025D01*
X6899Y6010D01*
X6898Y6010D02*
X6898Y5810D01*
X7192Y5810D02*
X7303Y5810D01*
X7192Y5810D02*
X7177Y5812D01*
X7163Y5817D01*
X7150Y5825D01*
X7140Y5835D01*
X7132Y5848D01*
X7127Y5862D01*
X7125Y5877D01*
X7126Y5877D02*
X7126Y5988D01*
X7128Y6007D01*
X7134Y6024D01*
X7143Y6040D01*
X7155Y6054D01*
X7171Y6065D01*
X7187Y6073D01*
X7206Y6077D01*
X7224Y6077D01*
X7243Y6073D01*
X7260Y6065D01*
X7275Y6054D01*
X7287Y6040D01*
X7296Y6024D01*
X7302Y6007D01*
X7304Y5988D01*
X7303Y5988D02*
X7303Y5943D01*
X7126Y5943D01*
X7589Y5966D02*
X7689Y5966D01*
X7589Y5966D02*
X7573Y5964D01*
X7557Y5959D01*
X7543Y5951D01*
X7531Y5940D01*
X7521Y5927D01*
X7515Y5912D01*
X7511Y5896D01*
X7511Y5880D01*
X7515Y5864D01*
X7521Y5849D01*
X7531Y5836D01*
X7543Y5825D01*
X7557Y5817D01*
X7573Y5812D01*
X7589Y5810D01*
X7689Y5810D01*
X7689Y6010D01*
X7690Y6010D02*
X7688Y6025D01*
X7683Y6039D01*
X7675Y6052D01*
X7665Y6062D01*
X7652Y6070D01*
X7638Y6075D01*
X7623Y6077D01*
X7534Y6077D01*
X7940Y6077D02*
X7940Y5810D01*
X7940Y6077D02*
X8074Y6077D01*
X8074Y6032D01*
X8602Y5810D02*
X8619Y5812D01*
X8636Y5817D01*
X8651Y5825D01*
X8665Y5836D01*
X8676Y5850D01*
X8684Y5865D01*
X8689Y5882D01*
X8691Y5899D01*
X8602Y5810D02*
X8577Y5812D01*
X8553Y5816D01*
X8530Y5824D01*
X8508Y5835D01*
X8487Y5849D01*
X8469Y5866D01*
X8479Y6121D02*
X8481Y6138D01*
X8486Y6155D01*
X8494Y6170D01*
X8505Y6184D01*
X8519Y6195D01*
X8534Y6203D01*
X8551Y6208D01*
X8568Y6210D01*
X8589Y6209D01*
X8611Y6204D01*
X8631Y6198D01*
X8650Y6188D01*
X8668Y6177D01*
X8480Y6121D02*
X8482Y6102D01*
X8488Y6085D01*
X8497Y6068D01*
X8509Y6055D01*
X8524Y6043D01*
X8646Y5977D02*
X8661Y5965D01*
X8673Y5952D01*
X8682Y5935D01*
X8688Y5918D01*
X8690Y5899D01*
X8646Y5977D02*
X8524Y6043D01*
X8895Y6210D02*
X8895Y5877D01*
X8894Y5877D02*
X8896Y5862D01*
X8901Y5848D01*
X8909Y5835D01*
X8919Y5825D01*
X8932Y5817D01*
X8946Y5812D01*
X8961Y5810D01*
X9120Y5810D02*
X9120Y6077D01*
X9108Y6188D02*
X9108Y6210D01*
X9131Y6210D01*
X9131Y6188D01*
X9108Y6188D01*
X9489Y6210D02*
X9489Y5810D01*
X9378Y5810D01*
X9363Y5812D01*
X9349Y5817D01*
X9336Y5825D01*
X9326Y5835D01*
X9318Y5848D01*
X9313Y5862D01*
X9311Y5877D01*
X9312Y5877D02*
X9312Y6010D01*
X9311Y6010D02*
X9313Y6025D01*
X9318Y6039D01*
X9326Y6052D01*
X9336Y6062D01*
X9349Y6070D01*
X9363Y6075D01*
X9378Y6077D01*
X9489Y6077D01*
X9787Y5810D02*
X9898Y5810D01*
X9787Y5810D02*
X9772Y5812D01*
X9758Y5817D01*
X9745Y5825D01*
X9735Y5835D01*
X9727Y5848D01*
X9722Y5862D01*
X9720Y5877D01*
X9721Y5877D02*
X9721Y5988D01*
X9723Y6007D01*
X9729Y6024D01*
X9738Y6040D01*
X9750Y6054D01*
X9766Y6065D01*
X9782Y6073D01*
X9801Y6077D01*
X9819Y6077D01*
X9838Y6073D01*
X9855Y6065D01*
X9870Y6054D01*
X9882Y6040D01*
X9891Y6024D01*
X9897Y6007D01*
X9899Y5988D01*
X9898Y5988D02*
X9898Y5943D01*
X9721Y5943D01*
X10385Y5810D02*
X10385Y6210D01*
X10496Y6210D01*
X10515Y6208D01*
X10534Y6203D01*
X10552Y6195D01*
X10567Y6184D01*
X10581Y6170D01*
X10592Y6155D01*
X10600Y6137D01*
X10605Y6118D01*
X10607Y6099D01*
X10605Y6080D01*
X10600Y6061D01*
X10592Y6044D01*
X10581Y6028D01*
X10567Y6014D01*
X10552Y6003D01*
X10534Y5995D01*
X10515Y5990D01*
X10496Y5988D01*
X10385Y5988D01*
X10801Y5988D02*
X10801Y5899D01*
X10801Y5988D02*
X10803Y6007D01*
X10809Y6024D01*
X10818Y6040D01*
X10830Y6054D01*
X10846Y6065D01*
X10862Y6073D01*
X10881Y6077D01*
X10899Y6077D01*
X10918Y6073D01*
X10935Y6065D01*
X10950Y6054D01*
X10962Y6040D01*
X10971Y6024D01*
X10977Y6007D01*
X10979Y5988D01*
X10978Y5988D02*
X10978Y5899D01*
X10979Y5899D02*
X10977Y5880D01*
X10971Y5863D01*
X10962Y5847D01*
X10950Y5833D01*
X10935Y5822D01*
X10918Y5814D01*
X10899Y5810D01*
X10881Y5810D01*
X10862Y5814D01*
X10846Y5822D01*
X10830Y5833D01*
X10818Y5847D01*
X10809Y5863D01*
X10803Y5880D01*
X10801Y5899D01*
X11147Y6077D02*
X11280Y6077D01*
X11191Y6210D02*
X11191Y5877D01*
X11193Y5862D01*
X11198Y5848D01*
X11206Y5835D01*
X11216Y5825D01*
X11229Y5817D01*
X11243Y5812D01*
X11258Y5810D01*
X11280Y5810D01*
X11542Y5810D02*
X11653Y5810D01*
X11542Y5810D02*
X11527Y5812D01*
X11513Y5817D01*
X11500Y5825D01*
X11490Y5835D01*
X11482Y5848D01*
X11477Y5862D01*
X11475Y5877D01*
X11476Y5877D02*
X11476Y5988D01*
X11478Y6007D01*
X11484Y6024D01*
X11493Y6040D01*
X11505Y6054D01*
X11521Y6065D01*
X11537Y6073D01*
X11556Y6077D01*
X11574Y6077D01*
X11593Y6073D01*
X11610Y6065D01*
X11625Y6054D01*
X11637Y6040D01*
X11646Y6024D01*
X11652Y6007D01*
X11654Y5988D01*
X11653Y5988D02*
X11653Y5943D01*
X11476Y5943D01*
X11881Y5810D02*
X11881Y6077D01*
X11992Y6077D01*
X12007Y6075D01*
X12021Y6070D01*
X12034Y6062D01*
X12044Y6052D01*
X12052Y6039D01*
X12057Y6025D01*
X12059Y6010D01*
X12058Y6010D02*
X12058Y5810D01*
X12242Y6077D02*
X12375Y6077D01*
X12286Y6210D02*
X12286Y5877D01*
X12288Y5862D01*
X12293Y5848D01*
X12301Y5835D01*
X12311Y5825D01*
X12324Y5817D01*
X12338Y5812D01*
X12353Y5810D01*
X12375Y5810D01*
X12555Y5810D02*
X12555Y6077D01*
X12543Y6188D02*
X12543Y6210D01*
X12566Y6210D01*
X12566Y6188D01*
X12543Y6188D01*
X12751Y5988D02*
X12751Y5899D01*
X12751Y5988D02*
X12753Y6007D01*
X12759Y6024D01*
X12768Y6040D01*
X12780Y6054D01*
X12796Y6065D01*
X12812Y6073D01*
X12831Y6077D01*
X12849Y6077D01*
X12868Y6073D01*
X12885Y6065D01*
X12900Y6054D01*
X12912Y6040D01*
X12921Y6024D01*
X12927Y6007D01*
X12929Y5988D01*
X12928Y5988D02*
X12928Y5899D01*
X12929Y5899D02*
X12927Y5880D01*
X12921Y5863D01*
X12912Y5847D01*
X12900Y5833D01*
X12885Y5822D01*
X12868Y5814D01*
X12849Y5810D01*
X12831Y5810D01*
X12812Y5814D01*
X12796Y5822D01*
X12780Y5833D01*
X12768Y5847D01*
X12759Y5863D01*
X12753Y5880D01*
X12751Y5899D01*
X13171Y5810D02*
X13171Y6077D01*
X13371Y6077D01*
X13386Y6075D01*
X13400Y6070D01*
X13413Y6062D01*
X13423Y6052D01*
X13431Y6039D01*
X13436Y6025D01*
X13438Y6010D01*
X13438Y5810D01*
X13305Y5810D02*
X13305Y6077D01*
X13747Y5810D02*
X13858Y5810D01*
X13747Y5810D02*
X13732Y5812D01*
X13718Y5817D01*
X13705Y5825D01*
X13695Y5835D01*
X13687Y5848D01*
X13682Y5862D01*
X13680Y5877D01*
X13681Y5877D02*
X13681Y5988D01*
X13683Y6007D01*
X13689Y6024D01*
X13698Y6040D01*
X13710Y6054D01*
X13726Y6065D01*
X13742Y6073D01*
X13761Y6077D01*
X13779Y6077D01*
X13798Y6073D01*
X13815Y6065D01*
X13830Y6054D01*
X13842Y6040D01*
X13851Y6024D01*
X13857Y6007D01*
X13859Y5988D01*
X13858Y5988D02*
X13858Y5943D01*
X13681Y5943D01*
X14027Y6077D02*
X14160Y6077D01*
X14071Y6210D02*
X14071Y5877D01*
X14073Y5862D01*
X14078Y5848D01*
X14086Y5835D01*
X14096Y5825D01*
X14109Y5817D01*
X14123Y5812D01*
X14138Y5810D01*
X14160Y5810D01*
X14422Y5810D02*
X14533Y5810D01*
X14422Y5810D02*
X14407Y5812D01*
X14393Y5817D01*
X14380Y5825D01*
X14370Y5835D01*
X14362Y5848D01*
X14357Y5862D01*
X14355Y5877D01*
X14356Y5877D02*
X14356Y5988D01*
X14358Y6007D01*
X14364Y6024D01*
X14373Y6040D01*
X14385Y6054D01*
X14401Y6065D01*
X14417Y6073D01*
X14436Y6077D01*
X14454Y6077D01*
X14473Y6073D01*
X14490Y6065D01*
X14505Y6054D01*
X14517Y6040D01*
X14526Y6024D01*
X14532Y6007D01*
X14534Y5988D01*
X14533Y5988D02*
X14533Y5943D01*
X14356Y5943D01*
X14765Y5810D02*
X14765Y6077D01*
X14899Y6077D01*
X14899Y6032D01*
D12*
X15870Y13320D02*
X16430Y13320D01*
X16181Y13507D02*
X15870Y13320D01*
X16181Y13507D02*
X15870Y13693D01*
X16430Y13693D01*
X16430Y13999D02*
X16057Y13999D01*
X15901Y13983D02*
X15870Y13983D01*
X15870Y14015D01*
X15901Y14015D01*
X15901Y13983D01*
X16430Y14359D02*
X16430Y14483D01*
X16430Y14359D02*
X16428Y14341D01*
X16423Y14323D01*
X16414Y14307D01*
X16403Y14293D01*
X16389Y14282D01*
X16373Y14273D01*
X16355Y14268D01*
X16337Y14266D01*
X16150Y14266D01*
X16132Y14268D01*
X16114Y14273D01*
X16098Y14282D01*
X16084Y14293D01*
X16073Y14307D01*
X16064Y14323D01*
X16059Y14341D01*
X16057Y14359D01*
X16057Y14483D01*
X16057Y14763D02*
X16430Y14763D01*
X16057Y14763D02*
X16057Y14949D01*
X16119Y14949D01*
X16181Y15167D02*
X16306Y15167D01*
X16181Y15167D02*
X16161Y15169D01*
X16141Y15174D01*
X16122Y15182D01*
X16105Y15193D01*
X16090Y15207D01*
X16077Y15223D01*
X16067Y15241D01*
X16061Y15261D01*
X16057Y15281D01*
X16057Y15301D01*
X16061Y15321D01*
X16067Y15341D01*
X16077Y15359D01*
X16090Y15375D01*
X16105Y15389D01*
X16122Y15400D01*
X16141Y15408D01*
X16161Y15413D01*
X16181Y15415D01*
X16181Y15416D02*
X16306Y15416D01*
X16306Y15415D02*
X16326Y15413D01*
X16346Y15408D01*
X16365Y15400D01*
X16382Y15389D01*
X16397Y15375D01*
X16410Y15359D01*
X16420Y15341D01*
X16426Y15321D01*
X16430Y15301D01*
X16430Y15281D01*
X16426Y15261D01*
X16420Y15241D01*
X16410Y15223D01*
X16397Y15207D01*
X16382Y15193D01*
X16365Y15182D01*
X16346Y15174D01*
X16326Y15169D01*
X16306Y15167D01*
X16119Y16277D02*
X16119Y16370D01*
X16430Y16370D01*
X16430Y16183D01*
X16428Y16164D01*
X16424Y16145D01*
X16416Y16127D01*
X16406Y16110D01*
X16394Y16095D01*
X16379Y16083D01*
X16362Y16073D01*
X16344Y16065D01*
X16325Y16061D01*
X16306Y16059D01*
X15994Y16059D01*
X15972Y16061D01*
X15952Y16066D01*
X15932Y16076D01*
X15914Y16088D01*
X15899Y16103D01*
X15887Y16121D01*
X15877Y16141D01*
X15872Y16161D01*
X15870Y16183D01*
X15870Y16370D01*
X16430Y16778D02*
X16430Y16934D01*
X16430Y16778D02*
X16428Y16760D01*
X16423Y16742D01*
X16414Y16726D01*
X16403Y16712D01*
X16389Y16701D01*
X16373Y16692D01*
X16355Y16687D01*
X16337Y16685D01*
X16181Y16685D01*
X16161Y16687D01*
X16141Y16692D01*
X16122Y16700D01*
X16105Y16711D01*
X16090Y16725D01*
X16077Y16741D01*
X16067Y16759D01*
X16061Y16779D01*
X16057Y16799D01*
X16057Y16819D01*
X16061Y16839D01*
X16067Y16859D01*
X16077Y16877D01*
X16090Y16893D01*
X16105Y16907D01*
X16122Y16918D01*
X16141Y16926D01*
X16161Y16931D01*
X16181Y16933D01*
X16181Y16934D02*
X16243Y16934D01*
X16243Y16685D01*
X16212Y17322D02*
X16212Y17462D01*
X16212Y17322D02*
X16214Y17302D01*
X16219Y17283D01*
X16228Y17265D01*
X16240Y17249D01*
X16255Y17235D01*
X16272Y17224D01*
X16291Y17217D01*
X16311Y17213D01*
X16331Y17213D01*
X16351Y17217D01*
X16370Y17224D01*
X16387Y17235D01*
X16402Y17249D01*
X16414Y17265D01*
X16423Y17283D01*
X16428Y17302D01*
X16430Y17322D01*
X16430Y17462D01*
X16150Y17462D01*
X16132Y17460D01*
X16114Y17455D01*
X16098Y17446D01*
X16084Y17435D01*
X16073Y17421D01*
X16064Y17405D01*
X16059Y17387D01*
X16057Y17369D01*
X16057Y17244D01*
X16057Y17799D02*
X16430Y17799D01*
X16057Y17799D02*
X16057Y17985D01*
X16119Y17985D01*
X15870Y18571D02*
X16430Y18571D01*
X16181Y18758D02*
X15870Y18571D01*
X16181Y18758D02*
X15870Y18945D01*
X16430Y18945D01*
X16306Y19270D02*
X16181Y19270D01*
X16161Y19272D01*
X16141Y19277D01*
X16122Y19285D01*
X16105Y19296D01*
X16090Y19310D01*
X16077Y19326D01*
X16067Y19344D01*
X16061Y19364D01*
X16057Y19384D01*
X16057Y19404D01*
X16061Y19424D01*
X16067Y19444D01*
X16077Y19462D01*
X16090Y19478D01*
X16105Y19492D01*
X16122Y19503D01*
X16141Y19511D01*
X16161Y19516D01*
X16181Y19518D01*
X16306Y19518D01*
X16326Y19516D01*
X16346Y19511D01*
X16365Y19503D01*
X16382Y19492D01*
X16397Y19478D01*
X16410Y19462D01*
X16420Y19444D01*
X16426Y19424D01*
X16430Y19404D01*
X16430Y19384D01*
X16426Y19364D01*
X16420Y19344D01*
X16410Y19326D01*
X16397Y19310D01*
X16382Y19296D01*
X16365Y19285D01*
X16346Y19277D01*
X16326Y19272D01*
X16306Y19270D01*
X16057Y19744D02*
X16057Y19930D01*
X15870Y19806D02*
X16337Y19806D01*
X16355Y19808D01*
X16373Y19813D01*
X16389Y19822D01*
X16403Y19833D01*
X16414Y19847D01*
X16423Y19863D01*
X16428Y19881D01*
X16430Y19899D01*
X16430Y19930D01*
X16306Y20193D02*
X16181Y20193D01*
X16161Y20195D01*
X16141Y20200D01*
X16122Y20208D01*
X16105Y20219D01*
X16090Y20233D01*
X16077Y20249D01*
X16067Y20267D01*
X16061Y20287D01*
X16057Y20307D01*
X16057Y20327D01*
X16061Y20347D01*
X16067Y20367D01*
X16077Y20385D01*
X16090Y20401D01*
X16105Y20415D01*
X16122Y20426D01*
X16141Y20434D01*
X16161Y20439D01*
X16181Y20441D01*
X16181Y20442D02*
X16306Y20442D01*
X16306Y20441D02*
X16326Y20439D01*
X16346Y20434D01*
X16365Y20426D01*
X16382Y20415D01*
X16397Y20401D01*
X16410Y20385D01*
X16420Y20367D01*
X16426Y20347D01*
X16430Y20327D01*
X16430Y20307D01*
X16426Y20287D01*
X16420Y20267D01*
X16410Y20249D01*
X16397Y20233D01*
X16382Y20219D01*
X16365Y20208D01*
X16346Y20200D01*
X16326Y20195D01*
X16306Y20193D01*
X16430Y20753D02*
X16057Y20753D01*
X16057Y20939D01*
X16119Y20939D01*
X17369Y13631D02*
X17369Y13538D01*
X17369Y13631D02*
X17680Y13631D01*
X17680Y13444D01*
X17678Y13425D01*
X17674Y13406D01*
X17666Y13388D01*
X17656Y13371D01*
X17644Y13356D01*
X17629Y13344D01*
X17612Y13334D01*
X17594Y13326D01*
X17575Y13322D01*
X17556Y13320D01*
X17244Y13320D01*
X17222Y13322D01*
X17202Y13327D01*
X17182Y13337D01*
X17164Y13349D01*
X17149Y13364D01*
X17137Y13382D01*
X17127Y13402D01*
X17122Y13422D01*
X17120Y13444D01*
X17120Y13631D01*
X17680Y14039D02*
X17680Y14195D01*
X17680Y14039D02*
X17678Y14021D01*
X17673Y14003D01*
X17664Y13987D01*
X17653Y13973D01*
X17639Y13962D01*
X17623Y13953D01*
X17605Y13948D01*
X17587Y13946D01*
X17431Y13946D01*
X17411Y13948D01*
X17391Y13953D01*
X17372Y13961D01*
X17355Y13972D01*
X17340Y13986D01*
X17327Y14002D01*
X17317Y14020D01*
X17311Y14040D01*
X17307Y14060D01*
X17307Y14080D01*
X17311Y14100D01*
X17317Y14120D01*
X17327Y14138D01*
X17340Y14154D01*
X17355Y14168D01*
X17372Y14179D01*
X17391Y14187D01*
X17411Y14192D01*
X17431Y14194D01*
X17431Y14195D02*
X17493Y14195D01*
X17493Y13946D01*
X17462Y14583D02*
X17462Y14723D01*
X17462Y14583D02*
X17464Y14563D01*
X17469Y14544D01*
X17478Y14526D01*
X17490Y14510D01*
X17505Y14496D01*
X17522Y14485D01*
X17541Y14478D01*
X17561Y14474D01*
X17581Y14474D01*
X17601Y14478D01*
X17620Y14485D01*
X17637Y14496D01*
X17652Y14510D01*
X17664Y14526D01*
X17673Y14544D01*
X17678Y14563D01*
X17680Y14583D01*
X17680Y14723D01*
X17400Y14723D01*
X17382Y14721D01*
X17364Y14716D01*
X17348Y14707D01*
X17334Y14696D01*
X17323Y14682D01*
X17314Y14666D01*
X17309Y14648D01*
X17307Y14630D01*
X17307Y14505D01*
X17307Y15060D02*
X17680Y15060D01*
X17307Y15060D02*
X17307Y15246D01*
X17369Y15246D01*
X17120Y15829D02*
X17680Y15829D01*
X17120Y15829D02*
X17120Y15985D01*
X17122Y16008D01*
X17127Y16031D01*
X17135Y16053D01*
X17147Y16073D01*
X17162Y16091D01*
X17179Y16107D01*
X17198Y16120D01*
X17219Y16130D01*
X17241Y16137D01*
X17264Y16141D01*
X17288Y16141D01*
X17311Y16137D01*
X17333Y16130D01*
X17354Y16120D01*
X17373Y16107D01*
X17390Y16091D01*
X17405Y16073D01*
X17417Y16053D01*
X17425Y16031D01*
X17430Y16008D01*
X17432Y15985D01*
X17431Y15985D02*
X17431Y15829D01*
X17431Y16016D02*
X17680Y16140D01*
X17462Y16532D02*
X17462Y16672D01*
X17462Y16532D02*
X17464Y16512D01*
X17469Y16493D01*
X17478Y16475D01*
X17490Y16459D01*
X17505Y16445D01*
X17522Y16434D01*
X17541Y16427D01*
X17561Y16423D01*
X17581Y16423D01*
X17601Y16427D01*
X17620Y16434D01*
X17637Y16445D01*
X17652Y16459D01*
X17664Y16475D01*
X17673Y16493D01*
X17678Y16512D01*
X17680Y16532D01*
X17680Y16672D01*
X17400Y16672D01*
X17400Y16671D02*
X17382Y16669D01*
X17364Y16664D01*
X17348Y16655D01*
X17334Y16644D01*
X17323Y16630D01*
X17314Y16614D01*
X17309Y16596D01*
X17307Y16578D01*
X17307Y16454D01*
X17307Y16923D02*
X17307Y17109D01*
X17120Y16985D02*
X17587Y16985D01*
X17605Y16987D01*
X17623Y16992D01*
X17639Y17001D01*
X17653Y17012D01*
X17664Y17026D01*
X17673Y17042D01*
X17678Y17060D01*
X17680Y17078D01*
X17680Y17109D01*
X17680Y17353D02*
X17307Y17353D01*
X17151Y17337D02*
X17120Y17337D01*
X17120Y17368D01*
X17151Y17368D01*
X17151Y17337D01*
X17431Y17618D02*
X17556Y17618D01*
X17431Y17618D02*
X17411Y17620D01*
X17391Y17625D01*
X17372Y17633D01*
X17355Y17644D01*
X17340Y17658D01*
X17327Y17674D01*
X17317Y17692D01*
X17311Y17712D01*
X17307Y17732D01*
X17307Y17752D01*
X17311Y17772D01*
X17317Y17792D01*
X17327Y17810D01*
X17340Y17826D01*
X17355Y17840D01*
X17372Y17851D01*
X17391Y17859D01*
X17411Y17864D01*
X17431Y17866D01*
X17431Y17867D02*
X17556Y17867D01*
X17556Y17866D02*
X17576Y17864D01*
X17596Y17859D01*
X17615Y17851D01*
X17632Y17840D01*
X17647Y17826D01*
X17660Y17810D01*
X17670Y17792D01*
X17676Y17772D01*
X17680Y17752D01*
X17680Y17732D01*
X17676Y17712D01*
X17670Y17692D01*
X17660Y17674D01*
X17647Y17658D01*
X17632Y17644D01*
X17615Y17633D01*
X17596Y17625D01*
X17576Y17620D01*
X17556Y17618D01*
X17742Y18459D02*
X17742Y18708D01*
X17742Y18951D02*
X17742Y19200D01*
X17742Y19444D02*
X17742Y19692D01*
X17742Y19936D02*
X17742Y20185D01*
X17742Y20428D02*
X17742Y20677D01*
X7726Y1130D02*
X7726Y570D01*
X7570Y1130D02*
X7881Y1130D01*
X8300Y1130D02*
X8113Y570D01*
X8487Y570D02*
X8300Y1130D01*
X8440Y710D02*
X8160Y710D01*
X8780Y726D02*
X8780Y1130D01*
X8780Y726D02*
X8782Y703D01*
X8787Y680D01*
X8795Y658D01*
X8807Y638D01*
X8822Y620D01*
X8839Y604D01*
X8858Y591D01*
X8879Y581D01*
X8901Y574D01*
X8924Y570D01*
X8948Y570D01*
X8971Y574D01*
X8993Y581D01*
X9014Y591D01*
X9033Y604D01*
X9050Y620D01*
X9065Y638D01*
X9077Y658D01*
X9085Y680D01*
X9090Y703D01*
X9092Y726D01*
X9091Y726D02*
X9091Y1130D01*
X9426Y788D02*
X9799Y788D01*
X10083Y570D02*
X10269Y1130D01*
X10456Y570D01*
X10409Y710D02*
X10129Y710D01*
X10756Y570D02*
X10756Y1130D01*
X10912Y1130D01*
X10935Y1128D01*
X10958Y1123D01*
X10980Y1115D01*
X11000Y1103D01*
X11018Y1088D01*
X11034Y1071D01*
X11047Y1052D01*
X11057Y1031D01*
X11064Y1009D01*
X11068Y986D01*
X11068Y962D01*
X11064Y939D01*
X11057Y917D01*
X11047Y896D01*
X11034Y877D01*
X11018Y860D01*
X11000Y845D01*
X10980Y833D01*
X10958Y825D01*
X10935Y820D01*
X10912Y818D01*
X10912Y819D02*
X10756Y819D01*
X10943Y819D02*
X11067Y570D01*
X11385Y570D02*
X11385Y1130D01*
X11541Y1130D01*
X11563Y1128D01*
X11585Y1124D01*
X11606Y1116D01*
X11625Y1105D01*
X11643Y1092D01*
X11659Y1076D01*
X11672Y1058D01*
X11683Y1039D01*
X11691Y1018D01*
X11695Y996D01*
X11697Y974D01*
X11697Y726D01*
X11695Y704D01*
X11691Y682D01*
X11683Y661D01*
X11672Y642D01*
X11659Y624D01*
X11643Y608D01*
X11625Y595D01*
X11606Y584D01*
X11585Y576D01*
X11563Y572D01*
X11541Y570D01*
X11385Y570D01*
X12319Y1130D02*
X12505Y570D01*
X12692Y1130D01*
X13013Y1052D02*
X12996Y1014D01*
X12983Y974D01*
X12974Y933D01*
X12968Y892D01*
X12966Y850D01*
X13012Y1052D02*
X13020Y1071D01*
X13032Y1088D01*
X13046Y1102D01*
X13063Y1114D01*
X13081Y1123D01*
X13101Y1128D01*
X13121Y1130D01*
X13141Y1128D01*
X13161Y1123D01*
X13179Y1114D01*
X13196Y1102D01*
X13210Y1088D01*
X13222Y1071D01*
X13230Y1052D01*
X13229Y1052D02*
X13246Y1014D01*
X13259Y974D01*
X13268Y933D01*
X13274Y892D01*
X13276Y850D01*
X12966Y850D02*
X12968Y808D01*
X12974Y767D01*
X12983Y726D01*
X12996Y686D01*
X13013Y648D01*
X13012Y648D02*
X13020Y629D01*
X13032Y612D01*
X13046Y598D01*
X13063Y586D01*
X13081Y577D01*
X13101Y572D01*
X13121Y570D01*
X13229Y648D02*
X13246Y686D01*
X13259Y726D01*
X13268Y767D01*
X13274Y808D01*
X13276Y850D01*
X13230Y648D02*
X13222Y629D01*
X13210Y612D01*
X13196Y598D01*
X13179Y586D01*
X13161Y577D01*
X13141Y572D01*
X13121Y570D01*
X12996Y694D02*
X13245Y1006D01*
X13580Y1006D02*
X13736Y1130D01*
X13736Y570D01*
X13580Y570D02*
X13892Y570D01*
D13*
X9132Y16500D02*
X9134Y16566D01*
X9140Y16632D01*
X9150Y16698D01*
X9163Y16763D01*
X9181Y16827D01*
X9202Y16889D01*
X9227Y16951D01*
X9255Y17011D01*
X9287Y17069D01*
X9323Y17125D01*
X9361Y17178D01*
X9403Y17230D01*
X9448Y17279D01*
X9495Y17325D01*
X9546Y17368D01*
X9598Y17408D01*
X9653Y17445D01*
X9710Y17479D01*
X9769Y17509D01*
X9830Y17536D01*
X9892Y17559D01*
X9955Y17578D01*
X10020Y17594D01*
X10085Y17606D01*
X10151Y17614D01*
X10217Y17618D01*
X10283Y17618D01*
X10349Y17614D01*
X10415Y17606D01*
X10480Y17594D01*
X10545Y17578D01*
X10608Y17559D01*
X10670Y17536D01*
X10731Y17509D01*
X10790Y17479D01*
X10847Y17445D01*
X10902Y17408D01*
X10954Y17368D01*
X11005Y17325D01*
X11052Y17279D01*
X11097Y17230D01*
X11139Y17178D01*
X11177Y17125D01*
X11213Y17069D01*
X11245Y17011D01*
X11273Y16951D01*
X11298Y16889D01*
X11319Y16827D01*
X11337Y16763D01*
X11350Y16698D01*
X11360Y16632D01*
X11366Y16566D01*
X11368Y16500D01*
X11366Y16434D01*
X11360Y16368D01*
X11350Y16302D01*
X11337Y16237D01*
X11319Y16173D01*
X11298Y16111D01*
X11273Y16049D01*
X11245Y15989D01*
X11213Y15931D01*
X11177Y15875D01*
X11139Y15822D01*
X11097Y15770D01*
X11052Y15721D01*
X11005Y15675D01*
X10954Y15632D01*
X10902Y15592D01*
X10847Y15555D01*
X10790Y15521D01*
X10731Y15491D01*
X10670Y15464D01*
X10608Y15441D01*
X10545Y15422D01*
X10480Y15406D01*
X10415Y15394D01*
X10349Y15386D01*
X10283Y15382D01*
X10217Y15382D01*
X10151Y15386D01*
X10085Y15394D01*
X10020Y15406D01*
X9955Y15422D01*
X9892Y15441D01*
X9830Y15464D01*
X9769Y15491D01*
X9710Y15521D01*
X9653Y15555D01*
X9598Y15592D01*
X9546Y15632D01*
X9495Y15675D01*
X9448Y15721D01*
X9403Y15770D01*
X9361Y15822D01*
X9323Y15875D01*
X9287Y15931D01*
X9255Y15989D01*
X9227Y16049D01*
X9202Y16111D01*
X9181Y16173D01*
X9163Y16237D01*
X9150Y16302D01*
X9140Y16368D01*
X9134Y16434D01*
X9132Y16500D01*
X9750Y20980D02*
X9350Y22550D01*
X10050Y22550D02*
X9990Y21000D01*
X10300Y20960D02*
X10580Y22510D01*
X11290Y22380D02*
X10730Y20930D01*
X11030Y20820D02*
X11790Y22190D01*
X12270Y21890D02*
X11390Y20700D01*
X9490Y20860D02*
X8710Y22300D01*
X8380Y22010D02*
X9190Y20740D01*
X9735Y16430D02*
X9737Y16475D01*
X9743Y16520D01*
X9752Y16564D01*
X9766Y16607D01*
X9783Y16649D01*
X9803Y16689D01*
X9827Y16728D01*
X9855Y16764D01*
X9885Y16797D01*
X9918Y16828D01*
X9953Y16856D01*
X9991Y16881D01*
X10031Y16902D01*
X10072Y16920D01*
X10115Y16935D01*
X10159Y16945D01*
X10204Y16952D01*
X10249Y16955D01*
X10294Y16954D01*
X10339Y16949D01*
X10383Y16940D01*
X10427Y16928D01*
X10469Y16912D01*
X10509Y16892D01*
X10548Y16869D01*
X10585Y16842D01*
X10619Y16813D01*
X10651Y16781D01*
X10679Y16746D01*
X10705Y16709D01*
X10727Y16669D01*
X10746Y16628D01*
X10761Y16586D01*
X10773Y16542D01*
X10781Y16498D01*
X10785Y16453D01*
X10785Y16407D01*
X10781Y16362D01*
X10773Y16318D01*
X10761Y16274D01*
X10746Y16232D01*
X10727Y16191D01*
X10705Y16151D01*
X10679Y16114D01*
X10651Y16079D01*
X10619Y16047D01*
X10585Y16018D01*
X10548Y15991D01*
X10509Y15968D01*
X10469Y15948D01*
X10427Y15932D01*
X10383Y15920D01*
X10339Y15911D01*
X10294Y15906D01*
X10249Y15905D01*
X10204Y15908D01*
X10159Y15915D01*
X10115Y15925D01*
X10072Y15940D01*
X10031Y15958D01*
X9991Y15979D01*
X9953Y16004D01*
X9918Y16032D01*
X9885Y16063D01*
X9855Y16096D01*
X9827Y16132D01*
X9803Y16171D01*
X9783Y16211D01*
X9766Y16253D01*
X9752Y16296D01*
X9743Y16340D01*
X9737Y16385D01*
X9735Y16430D01*
X18600Y12519D02*
X18657Y12519D01*
X18657Y12330D01*
X18544Y12330D01*
X18529Y12331D01*
X18515Y12336D01*
X18502Y12343D01*
X18490Y12352D01*
X18481Y12364D01*
X18474Y12377D01*
X18469Y12391D01*
X18468Y12406D01*
X18468Y12594D01*
X18470Y12611D01*
X18476Y12627D01*
X18485Y12641D01*
X18497Y12653D01*
X18511Y12662D01*
X18527Y12668D01*
X18544Y12670D01*
X18657Y12670D01*
X18852Y12670D02*
X18852Y12330D01*
X19041Y12330D02*
X18852Y12670D01*
X19041Y12670D02*
X19041Y12330D01*
X19236Y12330D02*
X19236Y12670D01*
X19331Y12670D01*
X19349Y12668D01*
X19367Y12663D01*
X19383Y12654D01*
X19397Y12642D01*
X19409Y12628D01*
X19418Y12612D01*
X19423Y12594D01*
X19425Y12576D01*
X19425Y12424D01*
X19423Y12406D01*
X19418Y12388D01*
X19409Y12372D01*
X19397Y12358D01*
X19383Y12346D01*
X19367Y12337D01*
X19349Y12332D01*
X19331Y12330D01*
X19236Y12330D01*
X18657Y13519D02*
X18600Y13519D01*
X18657Y13519D02*
X18657Y13330D01*
X18544Y13330D01*
X18529Y13331D01*
X18515Y13336D01*
X18502Y13343D01*
X18490Y13352D01*
X18481Y13364D01*
X18474Y13377D01*
X18469Y13391D01*
X18468Y13406D01*
X18468Y13594D01*
X18470Y13611D01*
X18476Y13627D01*
X18485Y13641D01*
X18497Y13653D01*
X18511Y13662D01*
X18527Y13668D01*
X18544Y13670D01*
X18657Y13670D01*
X18852Y13670D02*
X18852Y13330D01*
X19041Y13330D02*
X18852Y13670D01*
X19041Y13670D02*
X19041Y13330D01*
X19236Y13330D02*
X19236Y13670D01*
X19331Y13670D01*
X19349Y13668D01*
X19367Y13663D01*
X19383Y13654D01*
X19397Y13642D01*
X19409Y13628D01*
X19418Y13612D01*
X19423Y13594D01*
X19425Y13576D01*
X19425Y13424D01*
X19423Y13406D01*
X19418Y13388D01*
X19409Y13372D01*
X19397Y13358D01*
X19383Y13346D01*
X19367Y13337D01*
X19349Y13332D01*
X19331Y13330D01*
X19236Y13330D01*
X18681Y11462D02*
X18454Y11462D01*
X18568Y11349D02*
X18568Y11576D01*
X18857Y11330D02*
X18971Y11330D01*
X18986Y11331D01*
X19000Y11336D01*
X19013Y11343D01*
X19025Y11352D01*
X19034Y11364D01*
X19041Y11377D01*
X19046Y11391D01*
X19047Y11406D01*
X19046Y11406D02*
X19046Y11443D01*
X19047Y11443D02*
X19046Y11458D01*
X19041Y11472D01*
X19034Y11485D01*
X19025Y11497D01*
X19013Y11506D01*
X19000Y11513D01*
X18986Y11518D01*
X18971Y11519D01*
X18857Y11519D01*
X18857Y11670D01*
X19046Y11670D01*
X19198Y11670D02*
X19312Y11330D01*
X19425Y11670D01*
X18567Y9670D02*
X18567Y9330D01*
X18567Y9670D02*
X18662Y9670D01*
X18680Y9668D01*
X18698Y9663D01*
X18714Y9654D01*
X18728Y9642D01*
X18740Y9628D01*
X18749Y9612D01*
X18754Y9594D01*
X18756Y9576D01*
X18754Y9558D01*
X18749Y9540D01*
X18740Y9524D01*
X18728Y9510D01*
X18714Y9498D01*
X18698Y9489D01*
X18680Y9484D01*
X18662Y9482D01*
X18662Y9481D02*
X18567Y9481D01*
X18681Y9481D02*
X18756Y9330D01*
X19025Y9330D02*
X19042Y9332D01*
X19058Y9338D01*
X19072Y9347D01*
X19084Y9359D01*
X19093Y9373D01*
X19099Y9389D01*
X19101Y9406D01*
X19025Y9330D02*
X19004Y9331D01*
X18983Y9336D01*
X18963Y9342D01*
X18945Y9352D01*
X18927Y9363D01*
X18911Y9377D01*
X18921Y9594D02*
X18922Y9609D01*
X18927Y9623D01*
X18934Y9636D01*
X18943Y9648D01*
X18955Y9657D01*
X18968Y9664D01*
X18982Y9669D01*
X18997Y9670D01*
X19020Y9668D01*
X19042Y9663D01*
X19063Y9654D01*
X19082Y9642D01*
X18959Y9528D02*
X18946Y9537D01*
X18935Y9549D01*
X18928Y9563D01*
X18923Y9578D01*
X18921Y9594D01*
X19063Y9472D02*
X19076Y9463D01*
X19087Y9451D01*
X19094Y9437D01*
X19099Y9422D01*
X19101Y9406D01*
X19063Y9472D02*
X18959Y9528D01*
X19331Y9670D02*
X19331Y9330D01*
X19425Y9670D02*
X19236Y9670D01*
X18743Y14330D02*
X18629Y14670D01*
X18856Y14670D02*
X18743Y14330D01*
X19031Y14330D02*
X19031Y14670D01*
X18993Y14330D02*
X19068Y14330D01*
X19068Y14670D02*
X18993Y14670D01*
X19236Y14670D02*
X19236Y14330D01*
X19425Y14330D02*
X19236Y14670D01*
X19425Y14670D02*
X19425Y14330D01*
X18177Y10462D02*
X17950Y10462D01*
X18064Y10349D02*
X18064Y10576D01*
X18353Y10330D02*
X18448Y10330D01*
X18466Y10332D01*
X18484Y10337D01*
X18500Y10346D01*
X18514Y10358D01*
X18526Y10372D01*
X18535Y10388D01*
X18540Y10406D01*
X18542Y10424D01*
X18540Y10442D01*
X18535Y10460D01*
X18526Y10476D01*
X18514Y10490D01*
X18500Y10502D01*
X18484Y10511D01*
X18466Y10516D01*
X18448Y10518D01*
X18467Y10670D02*
X18353Y10670D01*
X18467Y10670D02*
X18483Y10668D01*
X18498Y10663D01*
X18512Y10655D01*
X18523Y10645D01*
X18533Y10632D01*
X18539Y10617D01*
X18543Y10602D01*
X18543Y10586D01*
X18539Y10571D01*
X18533Y10556D01*
X18523Y10543D01*
X18512Y10533D01*
X18498Y10525D01*
X18483Y10520D01*
X18467Y10518D01*
X18467Y10519D02*
X18391Y10519D01*
X18690Y10349D02*
X18690Y10330D01*
X18690Y10349D02*
X18709Y10349D01*
X18709Y10330D01*
X18690Y10330D01*
X18857Y10330D02*
X18952Y10330D01*
X18970Y10332D01*
X18988Y10337D01*
X19004Y10346D01*
X19018Y10358D01*
X19030Y10372D01*
X19039Y10388D01*
X19044Y10406D01*
X19046Y10424D01*
X19044Y10442D01*
X19039Y10460D01*
X19030Y10476D01*
X19018Y10490D01*
X19004Y10502D01*
X18988Y10511D01*
X18970Y10516D01*
X18952Y10518D01*
X18971Y10670D02*
X18857Y10670D01*
X18971Y10670D02*
X18987Y10668D01*
X19002Y10663D01*
X19016Y10655D01*
X19027Y10645D01*
X19037Y10632D01*
X19043Y10617D01*
X19047Y10602D01*
X19047Y10586D01*
X19043Y10571D01*
X19037Y10556D01*
X19027Y10543D01*
X19016Y10533D01*
X19002Y10525D01*
X18987Y10520D01*
X18971Y10518D01*
X18971Y10519D02*
X18895Y10519D01*
X19198Y10670D02*
X19312Y10330D01*
X19425Y10670D01*
X19236Y16500D02*
X19238Y16532D01*
X19243Y16563D01*
X19252Y16593D01*
X19264Y16623D01*
X19265Y16623D02*
X19271Y16636D01*
X19279Y16647D01*
X19290Y16657D01*
X19303Y16664D01*
X19317Y16669D01*
X19331Y16670D01*
X19345Y16669D01*
X19359Y16664D01*
X19372Y16657D01*
X19383Y16647D01*
X19391Y16636D01*
X19397Y16623D01*
X19409Y16593D01*
X19418Y16563D01*
X19423Y16532D01*
X19425Y16500D01*
X19236Y16500D02*
X19238Y16468D01*
X19243Y16437D01*
X19252Y16407D01*
X19264Y16377D01*
X19265Y16377D02*
X19271Y16364D01*
X19279Y16353D01*
X19290Y16343D01*
X19303Y16336D01*
X19317Y16331D01*
X19331Y16330D01*
X19397Y16377D02*
X19409Y16407D01*
X19418Y16437D01*
X19423Y16468D01*
X19425Y16500D01*
X19397Y16377D02*
X19391Y16364D01*
X19383Y16353D01*
X19372Y16343D01*
X19359Y16336D01*
X19345Y16331D01*
X19331Y16330D01*
X19255Y16406D02*
X19406Y16594D01*
X19236Y17594D02*
X19331Y17670D01*
X19331Y17330D01*
X19425Y17330D02*
X19236Y17330D01*
X19425Y18585D02*
X19423Y18602D01*
X19419Y18618D01*
X19411Y18632D01*
X19400Y18645D01*
X19387Y18656D01*
X19373Y18664D01*
X19357Y18668D01*
X19340Y18670D01*
X19321Y18668D01*
X19302Y18663D01*
X19284Y18655D01*
X19268Y18643D01*
X19255Y18629D01*
X19244Y18613D01*
X19236Y18595D01*
X19397Y18519D02*
X19409Y18533D01*
X19418Y18549D01*
X19423Y18567D01*
X19425Y18585D01*
X19397Y18519D02*
X19236Y18330D01*
X19425Y18330D01*
X19331Y19330D02*
X19236Y19330D01*
X19331Y19330D02*
X19349Y19332D01*
X19367Y19337D01*
X19383Y19346D01*
X19397Y19358D01*
X19409Y19372D01*
X19418Y19388D01*
X19423Y19406D01*
X19425Y19424D01*
X19423Y19442D01*
X19418Y19460D01*
X19409Y19476D01*
X19397Y19490D01*
X19383Y19502D01*
X19367Y19511D01*
X19349Y19516D01*
X19331Y19518D01*
X19349Y19670D02*
X19236Y19670D01*
X19349Y19670D02*
X19365Y19668D01*
X19380Y19663D01*
X19394Y19655D01*
X19405Y19645D01*
X19415Y19632D01*
X19421Y19617D01*
X19425Y19602D01*
X19425Y19586D01*
X19421Y19571D01*
X19415Y19556D01*
X19405Y19543D01*
X19394Y19533D01*
X19380Y19525D01*
X19365Y19520D01*
X19349Y19518D01*
X19349Y19519D02*
X19274Y19519D01*
X19236Y20406D02*
X19312Y20670D01*
X19236Y20406D02*
X19425Y20406D01*
X19368Y20481D02*
X19368Y20330D01*
X19349Y21330D02*
X19236Y21330D01*
X19349Y21330D02*
X19364Y21331D01*
X19378Y21336D01*
X19391Y21343D01*
X19403Y21352D01*
X19412Y21364D01*
X19419Y21377D01*
X19424Y21391D01*
X19425Y21406D01*
X19425Y21443D01*
X19424Y21458D01*
X19419Y21472D01*
X19412Y21485D01*
X19403Y21497D01*
X19391Y21506D01*
X19378Y21513D01*
X19364Y21518D01*
X19349Y21519D01*
X19236Y21519D01*
X19236Y21670D01*
X19425Y21670D01*
X1719Y7019D02*
X1662Y7019D01*
X1719Y7019D02*
X1719Y6830D01*
X1606Y6830D01*
X1591Y6831D01*
X1577Y6836D01*
X1564Y6843D01*
X1552Y6852D01*
X1543Y6864D01*
X1536Y6877D01*
X1531Y6891D01*
X1530Y6906D01*
X1530Y7094D01*
X1532Y7111D01*
X1538Y7127D01*
X1547Y7141D01*
X1559Y7153D01*
X1573Y7162D01*
X1589Y7168D01*
X1606Y7170D01*
X1719Y7170D01*
X1914Y7170D02*
X1914Y6830D01*
X2103Y6830D02*
X1914Y7170D01*
X2103Y7170D02*
X2103Y6830D01*
X2298Y6830D02*
X2298Y7170D01*
X2392Y7170D01*
X2410Y7168D01*
X2428Y7163D01*
X2444Y7154D01*
X2458Y7142D01*
X2470Y7128D01*
X2479Y7112D01*
X2484Y7094D01*
X2486Y7076D01*
X2487Y7076D02*
X2487Y6924D01*
X2486Y6924D02*
X2484Y6906D01*
X2479Y6888D01*
X2470Y6872D01*
X2458Y6858D01*
X2444Y6846D01*
X2428Y6837D01*
X2410Y6832D01*
X2392Y6830D01*
X2298Y6830D01*
X1530Y8094D02*
X1624Y8170D01*
X1624Y7830D01*
X1530Y7830D02*
X1719Y7830D01*
X1890Y7830D02*
X1984Y7830D01*
X2002Y7832D01*
X2020Y7837D01*
X2036Y7846D01*
X2050Y7858D01*
X2062Y7872D01*
X2071Y7888D01*
X2076Y7906D01*
X2078Y7924D01*
X2076Y7942D01*
X2071Y7960D01*
X2062Y7976D01*
X2050Y7990D01*
X2036Y8002D01*
X2020Y8011D01*
X2002Y8016D01*
X1984Y8018D01*
X2003Y8170D02*
X1890Y8170D01*
X2003Y8170D02*
X2019Y8168D01*
X2034Y8163D01*
X2048Y8155D01*
X2059Y8145D01*
X2069Y8132D01*
X2075Y8117D01*
X2079Y8102D01*
X2079Y8086D01*
X2075Y8071D01*
X2069Y8056D01*
X2059Y8043D01*
X2048Y8033D01*
X2034Y8025D01*
X2019Y8020D01*
X2003Y8018D01*
X2003Y8019D02*
X1928Y8019D01*
X1530Y9094D02*
X1624Y9170D01*
X1624Y8830D01*
X1530Y8830D02*
X1719Y8830D01*
X1994Y9170D02*
X2011Y9168D01*
X2027Y9164D01*
X2041Y9156D01*
X2054Y9145D01*
X2065Y9132D01*
X2073Y9118D01*
X2077Y9102D01*
X2079Y9085D01*
X1994Y9170D02*
X1975Y9168D01*
X1956Y9163D01*
X1938Y9155D01*
X1922Y9143D01*
X1909Y9129D01*
X1898Y9113D01*
X1890Y9095D01*
X2051Y9019D02*
X2063Y9033D01*
X2072Y9049D01*
X2077Y9067D01*
X2079Y9085D01*
X2051Y9019D02*
X1890Y8830D01*
X2079Y8830D01*
X1530Y10094D02*
X1624Y10170D01*
X1624Y9830D01*
X1530Y9830D02*
X1719Y9830D01*
X1890Y10094D02*
X1984Y10170D01*
X1984Y9830D01*
X1890Y9830D02*
X2079Y9830D01*
X1643Y6170D02*
X1530Y5830D01*
X1757Y5830D02*
X1643Y6170D01*
X1728Y5915D02*
X1558Y5915D01*
X1924Y5830D02*
X1924Y6170D01*
X2019Y6170D01*
X2037Y6168D01*
X2055Y6163D01*
X2071Y6154D01*
X2085Y6142D01*
X2097Y6128D01*
X2106Y6112D01*
X2111Y6094D01*
X2113Y6076D01*
X2111Y6058D01*
X2106Y6040D01*
X2097Y6024D01*
X2085Y6010D01*
X2071Y5998D01*
X2055Y5989D01*
X2037Y5984D01*
X2019Y5982D01*
X2019Y5981D02*
X1924Y5981D01*
X2038Y5981D02*
X2113Y5830D01*
X2294Y5830D02*
X2445Y5830D01*
X2294Y5830D02*
X2294Y6170D01*
X2445Y6170D01*
X2407Y6019D02*
X2294Y6019D01*
X2606Y6170D02*
X2606Y5830D01*
X2606Y6170D02*
X2757Y6170D01*
X2757Y6019D02*
X2606Y6019D01*
X1530Y11094D02*
X1624Y11170D01*
X1624Y10830D01*
X1530Y10830D02*
X1719Y10830D01*
X1890Y11000D02*
X1892Y11032D01*
X1897Y11063D01*
X1906Y11093D01*
X1918Y11123D01*
X1924Y11136D01*
X1932Y11147D01*
X1943Y11157D01*
X1956Y11164D01*
X1970Y11169D01*
X1984Y11170D01*
X1998Y11169D01*
X2012Y11164D01*
X2025Y11157D01*
X2036Y11147D01*
X2044Y11136D01*
X2050Y11123D01*
X2051Y11123D02*
X2063Y11093D01*
X2072Y11063D01*
X2077Y11032D01*
X2079Y11000D01*
X1890Y11000D02*
X1892Y10968D01*
X1897Y10937D01*
X1906Y10907D01*
X1918Y10877D01*
X1924Y10864D01*
X1932Y10853D01*
X1943Y10843D01*
X1956Y10836D01*
X1970Y10831D01*
X1984Y10830D01*
X2051Y10877D02*
X2063Y10907D01*
X2072Y10937D01*
X2077Y10968D01*
X2079Y11000D01*
X2050Y10877D02*
X2044Y10864D01*
X2036Y10853D01*
X2025Y10843D01*
X2012Y10836D01*
X1998Y10831D01*
X1984Y10830D01*
X1909Y10906D02*
X2060Y11094D01*
X1719Y11981D02*
X1606Y11981D01*
X1591Y11982D01*
X1577Y11987D01*
X1564Y11994D01*
X1552Y12003D01*
X1543Y12015D01*
X1536Y12028D01*
X1531Y12042D01*
X1530Y12057D01*
X1530Y12076D01*
X1532Y12094D01*
X1537Y12112D01*
X1546Y12128D01*
X1558Y12142D01*
X1572Y12154D01*
X1588Y12163D01*
X1606Y12168D01*
X1624Y12170D01*
X1642Y12168D01*
X1660Y12163D01*
X1676Y12154D01*
X1690Y12142D01*
X1702Y12128D01*
X1711Y12112D01*
X1716Y12094D01*
X1718Y12076D01*
X1719Y12076D02*
X1719Y11981D01*
X1717Y11957D01*
X1712Y11934D01*
X1703Y11912D01*
X1690Y11892D01*
X1675Y11874D01*
X1657Y11859D01*
X1637Y11846D01*
X1615Y11837D01*
X1592Y11832D01*
X1568Y11830D01*
X1530Y12924D02*
X1532Y12942D01*
X1537Y12960D01*
X1546Y12976D01*
X1558Y12990D01*
X1572Y13002D01*
X1588Y13011D01*
X1606Y13016D01*
X1624Y13018D01*
X1642Y13016D01*
X1660Y13011D01*
X1676Y13002D01*
X1690Y12990D01*
X1702Y12976D01*
X1711Y12960D01*
X1716Y12942D01*
X1718Y12924D01*
X1716Y12906D01*
X1711Y12888D01*
X1702Y12872D01*
X1690Y12858D01*
X1676Y12846D01*
X1660Y12837D01*
X1642Y12832D01*
X1624Y12830D01*
X1606Y12832D01*
X1588Y12837D01*
X1572Y12846D01*
X1558Y12858D01*
X1546Y12872D01*
X1537Y12888D01*
X1532Y12906D01*
X1530Y12924D01*
X1548Y13094D02*
X1550Y13110D01*
X1555Y13125D01*
X1563Y13139D01*
X1573Y13150D01*
X1586Y13160D01*
X1601Y13166D01*
X1616Y13170D01*
X1632Y13170D01*
X1647Y13166D01*
X1662Y13160D01*
X1675Y13150D01*
X1685Y13139D01*
X1693Y13125D01*
X1698Y13110D01*
X1700Y13094D01*
X1698Y13078D01*
X1693Y13063D01*
X1685Y13049D01*
X1675Y13038D01*
X1662Y13028D01*
X1647Y13022D01*
X1632Y13018D01*
X1616Y13018D01*
X1601Y13022D01*
X1586Y13028D01*
X1573Y13038D01*
X1563Y13049D01*
X1555Y13063D01*
X1550Y13078D01*
X1548Y13094D01*
X1530Y14632D02*
X1530Y14670D01*
X1719Y14670D01*
X1624Y14330D01*
X1643Y15519D02*
X1530Y15519D01*
X1643Y15519D02*
X1658Y15518D01*
X1672Y15513D01*
X1685Y15506D01*
X1697Y15497D01*
X1706Y15485D01*
X1713Y15472D01*
X1718Y15458D01*
X1719Y15443D01*
X1719Y15424D01*
X1718Y15424D02*
X1716Y15406D01*
X1711Y15388D01*
X1702Y15372D01*
X1690Y15358D01*
X1676Y15346D01*
X1660Y15337D01*
X1642Y15332D01*
X1624Y15330D01*
X1606Y15332D01*
X1588Y15337D01*
X1572Y15346D01*
X1558Y15358D01*
X1546Y15372D01*
X1537Y15388D01*
X1532Y15406D01*
X1530Y15424D01*
X1530Y15519D01*
X1532Y15543D01*
X1537Y15566D01*
X1546Y15588D01*
X1559Y15608D01*
X1574Y15626D01*
X1592Y15641D01*
X1612Y15654D01*
X1634Y15663D01*
X1657Y15668D01*
X1681Y15670D01*
X1643Y16330D02*
X1530Y16330D01*
X1643Y16330D02*
X1658Y16331D01*
X1672Y16336D01*
X1685Y16343D01*
X1697Y16352D01*
X1706Y16364D01*
X1713Y16377D01*
X1718Y16391D01*
X1719Y16406D01*
X1719Y16443D01*
X1718Y16458D01*
X1713Y16472D01*
X1706Y16485D01*
X1697Y16497D01*
X1685Y16506D01*
X1672Y16513D01*
X1658Y16518D01*
X1643Y16519D01*
X1530Y16519D01*
X1530Y16670D01*
X1719Y16670D01*
X1530Y17406D02*
X1606Y17670D01*
X1530Y17406D02*
X1719Y17406D01*
X1662Y17481D02*
X1662Y17330D01*
X1624Y18330D02*
X1530Y18330D01*
X1624Y18330D02*
X1642Y18332D01*
X1660Y18337D01*
X1676Y18346D01*
X1690Y18358D01*
X1702Y18372D01*
X1711Y18388D01*
X1716Y18406D01*
X1718Y18424D01*
X1716Y18442D01*
X1711Y18460D01*
X1702Y18476D01*
X1690Y18490D01*
X1676Y18502D01*
X1660Y18511D01*
X1642Y18516D01*
X1624Y18518D01*
X1643Y18670D02*
X1530Y18670D01*
X1643Y18670D02*
X1659Y18668D01*
X1674Y18663D01*
X1688Y18655D01*
X1699Y18645D01*
X1709Y18632D01*
X1715Y18617D01*
X1719Y18602D01*
X1719Y18586D01*
X1715Y18571D01*
X1709Y18556D01*
X1699Y18543D01*
X1688Y18533D01*
X1674Y18525D01*
X1659Y18520D01*
X1643Y18518D01*
X1643Y18519D02*
X1568Y18519D01*
X1719Y19585D02*
X1717Y19602D01*
X1713Y19618D01*
X1705Y19632D01*
X1694Y19645D01*
X1681Y19656D01*
X1667Y19664D01*
X1651Y19668D01*
X1634Y19670D01*
X1615Y19668D01*
X1596Y19663D01*
X1578Y19655D01*
X1562Y19643D01*
X1549Y19629D01*
X1538Y19613D01*
X1530Y19595D01*
X1691Y19519D02*
X1703Y19533D01*
X1712Y19549D01*
X1717Y19567D01*
X1719Y19585D01*
X1691Y19519D02*
X1530Y19330D01*
X1719Y19330D01*
X1624Y20330D02*
X1624Y20670D01*
X1530Y20670D02*
X1719Y20670D01*
X2074Y20670D02*
X1847Y20330D01*
X2074Y20330D02*
X1847Y20670D01*
X1530Y21330D02*
X1530Y21670D01*
X1624Y21670D01*
X1642Y21668D01*
X1660Y21663D01*
X1676Y21654D01*
X1690Y21642D01*
X1702Y21628D01*
X1711Y21612D01*
X1716Y21594D01*
X1718Y21576D01*
X1716Y21558D01*
X1711Y21540D01*
X1702Y21524D01*
X1690Y21510D01*
X1676Y21498D01*
X1660Y21489D01*
X1642Y21484D01*
X1624Y21482D01*
X1624Y21481D02*
X1530Y21481D01*
X1643Y21481D02*
X1719Y21330D01*
X1868Y21330D02*
X2094Y21670D01*
X1868Y21670D02*
X2094Y21330D01*
X1719Y4906D02*
X1717Y4889D01*
X1711Y4873D01*
X1702Y4859D01*
X1690Y4847D01*
X1676Y4838D01*
X1660Y4832D01*
X1643Y4830D01*
X1622Y4831D01*
X1601Y4836D01*
X1581Y4842D01*
X1563Y4852D01*
X1545Y4863D01*
X1529Y4877D01*
X1539Y5094D02*
X1540Y5109D01*
X1545Y5123D01*
X1552Y5136D01*
X1561Y5148D01*
X1573Y5157D01*
X1586Y5164D01*
X1600Y5169D01*
X1615Y5170D01*
X1638Y5168D01*
X1660Y5163D01*
X1681Y5154D01*
X1700Y5142D01*
X1577Y5028D02*
X1564Y5037D01*
X1553Y5049D01*
X1546Y5063D01*
X1541Y5078D01*
X1539Y5094D01*
X1681Y4972D02*
X1694Y4963D01*
X1705Y4951D01*
X1712Y4937D01*
X1717Y4922D01*
X1719Y4906D01*
X1681Y4972D02*
X1577Y5028D01*
X1890Y5170D02*
X1890Y4830D01*
X1890Y5170D02*
X1984Y5170D01*
X2002Y5168D01*
X2020Y5163D01*
X2036Y5154D01*
X2050Y5142D01*
X2062Y5128D01*
X2071Y5112D01*
X2076Y5094D01*
X2078Y5076D01*
X2079Y5076D02*
X2079Y4924D01*
X2078Y4924D02*
X2076Y4906D01*
X2071Y4888D01*
X2062Y4872D01*
X2050Y4858D01*
X2036Y4846D01*
X2020Y4837D01*
X2002Y4832D01*
X1984Y4830D01*
X1890Y4830D01*
X2243Y4830D02*
X2356Y5170D01*
X2470Y4830D01*
X2441Y4915D02*
X2271Y4915D01*
X1719Y3906D02*
X1717Y3889D01*
X1711Y3873D01*
X1702Y3859D01*
X1690Y3847D01*
X1676Y3838D01*
X1660Y3832D01*
X1643Y3830D01*
X1622Y3831D01*
X1601Y3836D01*
X1581Y3842D01*
X1563Y3852D01*
X1545Y3863D01*
X1529Y3877D01*
X1539Y4094D02*
X1540Y4109D01*
X1545Y4123D01*
X1552Y4136D01*
X1561Y4148D01*
X1573Y4157D01*
X1586Y4164D01*
X1600Y4169D01*
X1615Y4170D01*
X1638Y4168D01*
X1660Y4163D01*
X1681Y4154D01*
X1700Y4142D01*
X1577Y4028D02*
X1564Y4037D01*
X1553Y4049D01*
X1546Y4063D01*
X1541Y4078D01*
X1539Y4094D01*
X1681Y3972D02*
X1694Y3963D01*
X1705Y3951D01*
X1712Y3937D01*
X1717Y3922D01*
X1719Y3906D01*
X1681Y3972D02*
X1577Y4028D01*
X1952Y3830D02*
X2028Y3830D01*
X1952Y3830D02*
X1937Y3831D01*
X1923Y3836D01*
X1910Y3843D01*
X1898Y3852D01*
X1889Y3864D01*
X1882Y3877D01*
X1877Y3891D01*
X1876Y3906D01*
X1876Y4094D01*
X1878Y4111D01*
X1884Y4127D01*
X1893Y4141D01*
X1905Y4153D01*
X1919Y4162D01*
X1935Y4168D01*
X1952Y4170D01*
X2028Y4170D01*
X2191Y4170D02*
X2191Y3830D01*
X2342Y3830D01*
X18023Y8330D02*
X18023Y8670D01*
X17986Y8330D02*
X18061Y8330D01*
X18061Y8670D02*
X17986Y8670D01*
X18217Y8576D02*
X18217Y8424D01*
X18217Y8576D02*
X18219Y8594D01*
X18224Y8612D01*
X18233Y8628D01*
X18245Y8642D01*
X18259Y8654D01*
X18275Y8663D01*
X18293Y8668D01*
X18311Y8670D01*
X18329Y8668D01*
X18347Y8663D01*
X18363Y8654D01*
X18377Y8642D01*
X18389Y8628D01*
X18398Y8612D01*
X18403Y8594D01*
X18405Y8576D01*
X18406Y8576D02*
X18406Y8424D01*
X18405Y8424D02*
X18403Y8406D01*
X18398Y8388D01*
X18389Y8372D01*
X18377Y8358D01*
X18363Y8346D01*
X18347Y8337D01*
X18329Y8332D01*
X18311Y8330D01*
X18293Y8332D01*
X18275Y8337D01*
X18259Y8346D01*
X18245Y8358D01*
X18233Y8372D01*
X18224Y8388D01*
X18219Y8406D01*
X18217Y8424D01*
X18592Y8330D02*
X18592Y8670D01*
X18687Y8670D01*
X18705Y8668D01*
X18723Y8663D01*
X18739Y8654D01*
X18753Y8642D01*
X18765Y8628D01*
X18774Y8612D01*
X18779Y8594D01*
X18781Y8576D01*
X18779Y8558D01*
X18774Y8540D01*
X18765Y8524D01*
X18753Y8510D01*
X18739Y8498D01*
X18723Y8489D01*
X18705Y8484D01*
X18687Y8482D01*
X18687Y8481D02*
X18592Y8481D01*
X18706Y8481D02*
X18781Y8330D01*
X18962Y8330D02*
X19113Y8330D01*
X18962Y8330D02*
X18962Y8670D01*
X19113Y8670D01*
X19075Y8519D02*
X18962Y8519D01*
X19274Y8670D02*
X19274Y8330D01*
X19274Y8670D02*
X19425Y8670D01*
X19425Y8519D02*
X19274Y8519D01*
D14*
X5219Y11705D02*
X5221Y11717D01*
X5226Y11728D01*
X5235Y11737D01*
X5246Y11742D01*
X5258Y11744D01*
X5270Y11742D01*
X5281Y11737D01*
X5290Y11728D01*
X5295Y11717D01*
X5297Y11705D01*
X5295Y11693D01*
X5290Y11682D01*
X5281Y11673D01*
X5270Y11668D01*
X5258Y11666D01*
X5246Y11668D01*
X5235Y11673D01*
X5226Y11682D01*
X5221Y11693D01*
X5219Y11705D01*
D15*
X4894Y11524D02*
X4106Y11524D01*
X4106Y12476D02*
X4894Y12476D01*
D10*
X3345Y12586D02*
X3345Y12906D01*
X3434Y12906D01*
X3451Y12904D01*
X3468Y12899D01*
X3483Y12891D01*
X3497Y12880D01*
X3508Y12866D01*
X3516Y12851D01*
X3521Y12834D01*
X3523Y12817D01*
X3523Y12675D01*
X3521Y12658D01*
X3516Y12641D01*
X3508Y12626D01*
X3497Y12612D01*
X3483Y12601D01*
X3468Y12593D01*
X3451Y12588D01*
X3434Y12586D01*
X3345Y12586D01*
X3733Y12586D02*
X3733Y12906D01*
X3822Y12906D01*
X3841Y12904D01*
X3858Y12898D01*
X3874Y12889D01*
X3888Y12877D01*
X3899Y12862D01*
X3907Y12845D01*
X3911Y12826D01*
X3911Y12808D01*
X3907Y12789D01*
X3899Y12773D01*
X3888Y12757D01*
X3874Y12745D01*
X3858Y12736D01*
X3841Y12730D01*
X3822Y12728D01*
X3733Y12728D01*
X3840Y12728D02*
X3911Y12586D01*
X4178Y12586D02*
X4071Y12906D01*
X4285Y12906D02*
X4178Y12586D01*
X4449Y12675D02*
X4451Y12694D01*
X4457Y12711D01*
X4466Y12727D01*
X4478Y12741D01*
X4494Y12752D01*
X4510Y12760D01*
X4529Y12764D01*
X4547Y12764D01*
X4566Y12760D01*
X4583Y12752D01*
X4598Y12741D01*
X4610Y12727D01*
X4619Y12711D01*
X4625Y12694D01*
X4627Y12675D01*
X4625Y12656D01*
X4619Y12639D01*
X4610Y12623D01*
X4598Y12609D01*
X4583Y12598D01*
X4566Y12590D01*
X4547Y12586D01*
X4529Y12586D01*
X4510Y12590D01*
X4494Y12598D01*
X4478Y12609D01*
X4466Y12623D01*
X4457Y12639D01*
X4451Y12656D01*
X4449Y12675D01*
X4467Y12835D02*
X4469Y12851D01*
X4474Y12866D01*
X4482Y12879D01*
X4494Y12891D01*
X4507Y12899D01*
X4522Y12904D01*
X4538Y12906D01*
X4554Y12904D01*
X4569Y12899D01*
X4582Y12891D01*
X4594Y12879D01*
X4602Y12866D01*
X4607Y12851D01*
X4609Y12835D01*
X4607Y12819D01*
X4602Y12804D01*
X4594Y12791D01*
X4582Y12779D01*
X4569Y12771D01*
X4554Y12766D01*
X4538Y12764D01*
X4522Y12766D01*
X4507Y12771D01*
X4494Y12779D01*
X4482Y12791D01*
X4474Y12804D01*
X4469Y12819D01*
X4467Y12835D01*
X4809Y12675D02*
X4811Y12694D01*
X4817Y12711D01*
X4826Y12727D01*
X4838Y12741D01*
X4854Y12752D01*
X4870Y12760D01*
X4889Y12764D01*
X4907Y12764D01*
X4926Y12760D01*
X4943Y12752D01*
X4958Y12741D01*
X4970Y12727D01*
X4979Y12711D01*
X4985Y12694D01*
X4987Y12675D01*
X4985Y12656D01*
X4979Y12639D01*
X4970Y12623D01*
X4958Y12609D01*
X4943Y12598D01*
X4926Y12590D01*
X4907Y12586D01*
X4889Y12586D01*
X4870Y12590D01*
X4854Y12598D01*
X4838Y12609D01*
X4826Y12623D01*
X4817Y12639D01*
X4811Y12656D01*
X4809Y12675D01*
X4827Y12835D02*
X4829Y12851D01*
X4834Y12866D01*
X4842Y12879D01*
X4854Y12891D01*
X4867Y12899D01*
X4882Y12904D01*
X4898Y12906D01*
X4914Y12904D01*
X4929Y12899D01*
X4942Y12891D01*
X4954Y12879D01*
X4962Y12866D01*
X4967Y12851D01*
X4969Y12835D01*
X4967Y12819D01*
X4962Y12804D01*
X4954Y12791D01*
X4942Y12779D01*
X4929Y12771D01*
X4914Y12766D01*
X4898Y12764D01*
X4882Y12766D01*
X4867Y12771D01*
X4854Y12779D01*
X4842Y12791D01*
X4834Y12804D01*
X4829Y12819D01*
X4827Y12835D01*
X5169Y12586D02*
X5258Y12586D01*
X5277Y12588D01*
X5294Y12594D01*
X5310Y12603D01*
X5324Y12615D01*
X5335Y12631D01*
X5343Y12647D01*
X5347Y12666D01*
X5347Y12684D01*
X5343Y12703D01*
X5335Y12720D01*
X5324Y12735D01*
X5310Y12747D01*
X5294Y12756D01*
X5277Y12762D01*
X5258Y12764D01*
X5276Y12906D02*
X5169Y12906D01*
X5276Y12906D02*
X5292Y12904D01*
X5307Y12899D01*
X5320Y12891D01*
X5332Y12879D01*
X5340Y12866D01*
X5345Y12851D01*
X5347Y12835D01*
X5345Y12819D01*
X5340Y12804D01*
X5332Y12791D01*
X5320Y12779D01*
X5307Y12771D01*
X5292Y12766D01*
X5276Y12764D01*
X5205Y12764D01*
X5529Y12675D02*
X5531Y12694D01*
X5537Y12711D01*
X5546Y12727D01*
X5558Y12741D01*
X5574Y12752D01*
X5590Y12760D01*
X5609Y12764D01*
X5627Y12764D01*
X5646Y12760D01*
X5663Y12752D01*
X5678Y12741D01*
X5690Y12727D01*
X5699Y12711D01*
X5705Y12694D01*
X5707Y12675D01*
X5705Y12656D01*
X5699Y12639D01*
X5690Y12623D01*
X5678Y12609D01*
X5663Y12598D01*
X5646Y12590D01*
X5627Y12586D01*
X5609Y12586D01*
X5590Y12590D01*
X5574Y12598D01*
X5558Y12609D01*
X5546Y12623D01*
X5537Y12639D01*
X5531Y12656D01*
X5529Y12675D01*
X5547Y12835D02*
X5549Y12851D01*
X5554Y12866D01*
X5562Y12879D01*
X5574Y12891D01*
X5587Y12899D01*
X5602Y12904D01*
X5618Y12906D01*
X5634Y12904D01*
X5649Y12899D01*
X5662Y12891D01*
X5674Y12879D01*
X5682Y12866D01*
X5687Y12851D01*
X5689Y12835D01*
X5687Y12819D01*
X5682Y12804D01*
X5674Y12791D01*
X5662Y12779D01*
X5649Y12771D01*
X5634Y12766D01*
X5618Y12764D01*
X5602Y12766D01*
X5587Y12771D01*
X5574Y12779D01*
X5562Y12791D01*
X5554Y12804D01*
X5549Y12819D01*
X5547Y12835D01*
X4224Y8685D02*
X4224Y8449D01*
X4539Y8449D01*
X4224Y9315D02*
X4224Y9551D01*
X4539Y9551D01*
D16*
X5500Y9000D03*
D17*
X5805Y8915D02*
X5935Y8915D01*
X5805Y8915D02*
X5805Y8951D01*
X5807Y8962D01*
X5812Y8972D01*
X5820Y8980D01*
X5830Y8985D01*
X5841Y8987D01*
X5852Y8985D01*
X5862Y8980D01*
X5870Y8972D01*
X5875Y8962D01*
X5877Y8951D01*
X5877Y8915D01*
X5877Y8958D02*
X5935Y8987D01*
X5899Y9058D02*
X5888Y9060D01*
X5878Y9065D01*
X5870Y9073D01*
X5865Y9083D01*
X5863Y9094D01*
X5865Y9105D01*
X5870Y9115D01*
X5878Y9123D01*
X5888Y9128D01*
X5899Y9130D01*
X5910Y9128D01*
X5920Y9123D01*
X5928Y9115D01*
X5933Y9105D01*
X5935Y9094D01*
X5933Y9083D01*
X5928Y9073D01*
X5920Y9065D01*
X5910Y9060D01*
X5899Y9058D01*
X5834Y9065D02*
X5825Y9066D01*
X5817Y9071D01*
X5811Y9077D01*
X5806Y9085D01*
X5805Y9094D01*
X5806Y9103D01*
X5811Y9111D01*
X5817Y9117D01*
X5825Y9122D01*
X5834Y9123D01*
X5843Y9122D01*
X5851Y9117D01*
X5857Y9111D01*
X5862Y9103D01*
X5863Y9094D01*
X5862Y9085D01*
X5857Y9077D01*
X5851Y9071D01*
X5843Y9066D01*
X5834Y9065D01*
D16*
X3500Y9000D03*
D17*
X3185Y8915D02*
X3055Y8915D01*
X3055Y8951D01*
X3057Y8962D01*
X3062Y8972D01*
X3070Y8980D01*
X3080Y8985D01*
X3091Y8987D01*
X3102Y8985D01*
X3112Y8980D01*
X3120Y8972D01*
X3125Y8962D01*
X3127Y8951D01*
X3127Y8915D01*
X3127Y8958D02*
X3185Y8987D01*
X3127Y9086D02*
X3127Y9130D01*
X3127Y9086D02*
X3126Y9077D01*
X3121Y9069D01*
X3115Y9063D01*
X3107Y9058D01*
X3098Y9057D01*
X3091Y9057D01*
X3091Y9058D02*
X3080Y9060D01*
X3070Y9065D01*
X3062Y9073D01*
X3057Y9083D01*
X3055Y9094D01*
X3057Y9105D01*
X3062Y9115D01*
X3070Y9123D01*
X3080Y9128D01*
X3091Y9130D01*
X3127Y9130D01*
X3140Y9129D01*
X3152Y9124D01*
X3163Y9117D01*
X3172Y9108D01*
X3179Y9097D01*
X3184Y9085D01*
X3185Y9072D01*
D10*
X4224Y7185D02*
X4224Y6949D01*
X4539Y6949D01*
X4224Y7815D02*
X4224Y8051D01*
X4539Y8051D01*
D16*
X5500Y7500D03*
D17*
X5805Y7415D02*
X5935Y7415D01*
X5805Y7415D02*
X5805Y7451D01*
X5807Y7462D01*
X5812Y7472D01*
X5820Y7480D01*
X5830Y7485D01*
X5841Y7487D01*
X5852Y7485D01*
X5862Y7480D01*
X5870Y7472D01*
X5875Y7462D01*
X5877Y7451D01*
X5877Y7415D01*
X5877Y7458D02*
X5935Y7487D01*
X5834Y7557D02*
X5805Y7594D01*
X5935Y7594D01*
X5935Y7630D02*
X5935Y7557D01*
X5870Y7702D02*
X5854Y7703D01*
X5838Y7707D01*
X5823Y7713D01*
X5823Y7712D02*
X5816Y7716D01*
X5810Y7722D01*
X5806Y7730D01*
X5805Y7738D01*
X5806Y7746D01*
X5810Y7754D01*
X5816Y7760D01*
X5823Y7764D01*
X5823Y7763D02*
X5838Y7769D01*
X5854Y7773D01*
X5870Y7774D01*
X5870Y7702D02*
X5886Y7703D01*
X5902Y7707D01*
X5917Y7713D01*
X5917Y7712D02*
X5924Y7716D01*
X5930Y7722D01*
X5934Y7730D01*
X5935Y7738D01*
X5917Y7763D02*
X5902Y7769D01*
X5886Y7773D01*
X5870Y7774D01*
X5917Y7764D02*
X5924Y7760D01*
X5930Y7754D01*
X5934Y7746D01*
X5935Y7738D01*
X5906Y7709D02*
X5834Y7766D01*
D16*
X3500Y7500D03*
D17*
X3185Y7415D02*
X3055Y7415D01*
X3055Y7451D01*
X3057Y7462D01*
X3062Y7472D01*
X3070Y7480D01*
X3080Y7485D01*
X3091Y7487D01*
X3102Y7485D01*
X3112Y7480D01*
X3120Y7472D01*
X3125Y7462D01*
X3127Y7451D01*
X3127Y7415D01*
X3127Y7458D02*
X3185Y7487D01*
X3084Y7557D02*
X3055Y7594D01*
X3185Y7594D01*
X3185Y7630D02*
X3185Y7557D01*
X3084Y7701D02*
X3055Y7738D01*
X3185Y7738D01*
X3185Y7774D02*
X3185Y7701D01*
D10*
X3019Y23445D02*
X2481Y23445D01*
X2335Y22071D02*
X2015Y22071D01*
X2015Y22160D01*
X2017Y22179D01*
X2023Y22196D01*
X2032Y22212D01*
X2044Y22226D01*
X2060Y22237D01*
X2076Y22245D01*
X2095Y22249D01*
X2113Y22249D01*
X2132Y22245D01*
X2149Y22237D01*
X2164Y22226D01*
X2176Y22212D01*
X2185Y22196D01*
X2191Y22179D01*
X2193Y22160D01*
X2193Y22071D01*
X2193Y22178D02*
X2335Y22249D01*
X2335Y22440D02*
X2335Y22583D01*
X2335Y22440D02*
X2015Y22440D01*
X2015Y22583D01*
X2157Y22547D02*
X2157Y22440D01*
X2015Y22751D02*
X2335Y22751D01*
X2015Y22751D02*
X2015Y22840D01*
X2017Y22857D01*
X2022Y22874D01*
X2030Y22889D01*
X2041Y22903D01*
X2055Y22914D01*
X2070Y22922D01*
X2087Y22927D01*
X2104Y22929D01*
X2246Y22929D01*
X2263Y22927D01*
X2280Y22922D01*
X2295Y22914D01*
X2309Y22903D01*
X2320Y22889D01*
X2328Y22874D01*
X2333Y22857D01*
X2335Y22840D01*
X2335Y22751D01*
X3731Y23445D02*
X4269Y23445D01*
X3407Y21899D02*
X3407Y21846D01*
X3407Y21899D02*
X3585Y21899D01*
X3585Y21792D01*
X3583Y21776D01*
X3578Y21761D01*
X3570Y21748D01*
X3558Y21736D01*
X3545Y21728D01*
X3530Y21723D01*
X3514Y21721D01*
X3336Y21721D01*
X3320Y21723D01*
X3305Y21728D01*
X3292Y21736D01*
X3280Y21748D01*
X3272Y21761D01*
X3267Y21776D01*
X3265Y21792D01*
X3265Y21899D01*
X3265Y22109D02*
X3585Y22109D01*
X3265Y22109D02*
X3265Y22198D01*
X3267Y22217D01*
X3273Y22234D01*
X3282Y22250D01*
X3294Y22264D01*
X3310Y22275D01*
X3326Y22283D01*
X3345Y22287D01*
X3363Y22287D01*
X3382Y22283D01*
X3399Y22275D01*
X3414Y22264D01*
X3426Y22250D01*
X3435Y22234D01*
X3441Y22217D01*
X3443Y22198D01*
X3443Y22109D01*
X3443Y22216D02*
X3585Y22287D01*
X3585Y22478D02*
X3585Y22621D01*
X3585Y22478D02*
X3265Y22478D01*
X3265Y22621D01*
X3407Y22585D02*
X3407Y22478D01*
X3585Y22790D02*
X3585Y22933D01*
X3585Y22790D02*
X3265Y22790D01*
X3265Y22933D01*
X3407Y22897D02*
X3407Y22790D01*
X3265Y23101D02*
X3585Y23101D01*
X3585Y23279D02*
X3265Y23101D01*
X3265Y23279D02*
X3585Y23279D01*
X4981Y23445D02*
X5519Y23445D01*
X4657Y21994D02*
X4657Y21905D01*
X4657Y21994D02*
X4659Y22013D01*
X4665Y22030D01*
X4674Y22046D01*
X4686Y22060D01*
X4702Y22071D01*
X4718Y22079D01*
X4737Y22083D01*
X4755Y22083D01*
X4774Y22079D01*
X4791Y22071D01*
X4806Y22060D01*
X4818Y22046D01*
X4827Y22030D01*
X4833Y22013D01*
X4835Y21994D01*
X4835Y21905D01*
X4515Y21905D01*
X4515Y21994D01*
X4517Y22010D01*
X4522Y22025D01*
X4530Y22038D01*
X4542Y22050D01*
X4555Y22058D01*
X4570Y22063D01*
X4586Y22065D01*
X4602Y22063D01*
X4617Y22058D01*
X4630Y22050D01*
X4642Y22038D01*
X4650Y22025D01*
X4655Y22010D01*
X4657Y21994D01*
X4515Y22257D02*
X4835Y22257D01*
X4835Y22399D01*
X4746Y22568D02*
X4515Y22568D01*
X4746Y22567D02*
X4765Y22569D01*
X4782Y22575D01*
X4798Y22584D01*
X4812Y22596D01*
X4823Y22612D01*
X4831Y22628D01*
X4835Y22647D01*
X4835Y22665D01*
X4831Y22684D01*
X4823Y22701D01*
X4812Y22716D01*
X4798Y22728D01*
X4782Y22737D01*
X4765Y22743D01*
X4746Y22745D01*
X4515Y22745D01*
X4835Y22953D02*
X4835Y23095D01*
X4835Y22953D02*
X4515Y22953D01*
X4515Y23095D01*
X4657Y23060D02*
X4657Y22953D01*
X3610Y1728D02*
X17390Y1728D01*
X17390Y5272D01*
X3610Y5272D01*
X3610Y1728D01*
D15*
X4988Y2713D02*
X4988Y4287D01*
X4988Y2713D02*
X16012Y2713D01*
X16012Y4287D01*
X4988Y4287D01*
D18*
X4122Y3500D02*
X4124Y3533D01*
X4130Y3565D01*
X4139Y3596D01*
X4152Y3626D01*
X4169Y3654D01*
X4189Y3680D01*
X4212Y3704D01*
X4237Y3724D01*
X4265Y3742D01*
X4294Y3756D01*
X4325Y3766D01*
X4357Y3773D01*
X4390Y3776D01*
X4423Y3775D01*
X4455Y3770D01*
X4486Y3761D01*
X4517Y3749D01*
X4545Y3733D01*
X4572Y3714D01*
X4596Y3692D01*
X4617Y3667D01*
X4636Y3640D01*
X4651Y3611D01*
X4662Y3581D01*
X4670Y3549D01*
X4674Y3516D01*
X4674Y3484D01*
X4670Y3451D01*
X4662Y3419D01*
X4651Y3389D01*
X4636Y3360D01*
X4617Y3333D01*
X4596Y3308D01*
X4572Y3286D01*
X4545Y3267D01*
X4517Y3251D01*
X4486Y3239D01*
X4455Y3230D01*
X4423Y3225D01*
X4390Y3224D01*
X4357Y3227D01*
X4325Y3234D01*
X4294Y3244D01*
X4265Y3258D01*
X4237Y3276D01*
X4212Y3296D01*
X4189Y3320D01*
X4169Y3346D01*
X4152Y3374D01*
X4139Y3404D01*
X4130Y3435D01*
X4124Y3467D01*
X4122Y3500D01*
X16326Y3500D02*
X16328Y3533D01*
X16334Y3565D01*
X16343Y3596D01*
X16356Y3626D01*
X16373Y3654D01*
X16393Y3680D01*
X16416Y3704D01*
X16441Y3724D01*
X16469Y3742D01*
X16498Y3756D01*
X16529Y3766D01*
X16561Y3773D01*
X16594Y3776D01*
X16627Y3775D01*
X16659Y3770D01*
X16690Y3761D01*
X16721Y3749D01*
X16749Y3733D01*
X16776Y3714D01*
X16800Y3692D01*
X16821Y3667D01*
X16840Y3640D01*
X16855Y3611D01*
X16866Y3581D01*
X16874Y3549D01*
X16878Y3516D01*
X16878Y3484D01*
X16874Y3451D01*
X16866Y3419D01*
X16855Y3389D01*
X16840Y3360D01*
X16821Y3333D01*
X16800Y3308D01*
X16776Y3286D01*
X16749Y3267D01*
X16721Y3251D01*
X16690Y3239D01*
X16659Y3230D01*
X16627Y3225D01*
X16594Y3224D01*
X16561Y3227D01*
X16529Y3234D01*
X16498Y3244D01*
X16469Y3258D01*
X16441Y3276D01*
X16416Y3296D01*
X16393Y3320D01*
X16373Y3346D01*
X16356Y3374D01*
X16343Y3404D01*
X16334Y3435D01*
X16328Y3467D01*
X16326Y3500D01*
D15*
X3315Y20232D02*
X3125Y20232D01*
X3125Y20285D01*
X3127Y20299D01*
X3132Y20312D01*
X3141Y20322D01*
X3152Y20331D01*
X3164Y20336D01*
X3178Y20338D01*
X3192Y20336D01*
X3205Y20331D01*
X3215Y20322D01*
X3224Y20312D01*
X3229Y20299D01*
X3231Y20285D01*
X3231Y20232D01*
X3231Y20296D02*
X3315Y20338D01*
X3167Y20446D02*
X3125Y20499D01*
X3315Y20499D01*
X3315Y20446D02*
X3315Y20552D01*
X3125Y20720D02*
X3127Y20732D01*
X3131Y20744D01*
X3139Y20754D01*
X3149Y20762D01*
X3161Y20766D01*
X3173Y20768D01*
X3125Y20720D02*
X3126Y20707D01*
X3130Y20695D01*
X3137Y20684D01*
X3145Y20675D01*
X3156Y20667D01*
X3167Y20662D01*
X3210Y20752D02*
X3199Y20761D01*
X3187Y20766D01*
X3173Y20768D01*
X3209Y20752D02*
X3315Y20662D01*
X3315Y20768D01*
X4125Y20232D02*
X4315Y20232D01*
X4125Y20232D02*
X4125Y20285D01*
X4127Y20299D01*
X4132Y20312D01*
X4141Y20322D01*
X4152Y20331D01*
X4164Y20336D01*
X4178Y20338D01*
X4192Y20336D01*
X4205Y20331D01*
X4215Y20322D01*
X4224Y20312D01*
X4229Y20299D01*
X4231Y20285D01*
X4231Y20232D01*
X4231Y20296D02*
X4315Y20338D01*
X4167Y20446D02*
X4125Y20499D01*
X4315Y20499D01*
X4315Y20446D02*
X4315Y20552D01*
X4315Y20662D02*
X4315Y20715D01*
X4313Y20729D01*
X4308Y20742D01*
X4299Y20752D01*
X4289Y20761D01*
X4276Y20766D01*
X4262Y20768D01*
X4248Y20766D01*
X4236Y20761D01*
X4225Y20752D01*
X4216Y20742D01*
X4211Y20729D01*
X4209Y20715D01*
X4125Y20725D02*
X4125Y20662D01*
X4125Y20725D02*
X4127Y20737D01*
X4132Y20748D01*
X4139Y20757D01*
X4150Y20763D01*
X4161Y20767D01*
X4173Y20767D01*
X4184Y20763D01*
X4195Y20757D01*
X4202Y20748D01*
X4207Y20737D01*
X4209Y20725D01*
X4209Y20683D01*
X5125Y20232D02*
X5315Y20232D01*
X5125Y20232D02*
X5125Y20285D01*
X5127Y20299D01*
X5132Y20312D01*
X5141Y20322D01*
X5152Y20331D01*
X5164Y20336D01*
X5178Y20338D01*
X5192Y20336D01*
X5205Y20331D01*
X5215Y20322D01*
X5224Y20312D01*
X5229Y20299D01*
X5231Y20285D01*
X5231Y20232D01*
X5231Y20296D02*
X5315Y20338D01*
X5167Y20446D02*
X5125Y20499D01*
X5315Y20499D01*
X5315Y20446D02*
X5315Y20552D01*
X5273Y20662D02*
X5125Y20704D01*
X5273Y20662D02*
X5273Y20768D01*
X5231Y20736D02*
X5315Y20736D01*
X13015Y8941D02*
X13015Y8899D01*
X13014Y8888D01*
X13009Y8878D01*
X13003Y8869D01*
X12994Y8863D01*
X12984Y8858D01*
X12973Y8857D01*
X12867Y8857D01*
X12856Y8858D01*
X12846Y8863D01*
X12837Y8869D01*
X12831Y8878D01*
X12826Y8888D01*
X12825Y8899D01*
X12825Y8941D01*
X12825Y9080D02*
X12973Y9038D01*
X12973Y9143D01*
X12931Y9112D02*
X13015Y9112D01*
X9015Y8840D02*
X8825Y8840D01*
X8825Y8893D01*
X8827Y8907D01*
X8832Y8920D01*
X8841Y8930D01*
X8852Y8939D01*
X8864Y8944D01*
X8878Y8946D01*
X8892Y8944D01*
X8905Y8939D01*
X8915Y8930D01*
X8924Y8920D01*
X8929Y8907D01*
X8931Y8893D01*
X8931Y8840D01*
X8931Y8904D02*
X9015Y8946D01*
X8867Y9054D02*
X8825Y9107D01*
X9015Y9107D01*
X9015Y9054D02*
X9015Y9160D01*
X9340Y8015D02*
X9340Y7825D01*
X9340Y8015D02*
X9393Y8015D01*
X9407Y8013D01*
X9420Y8008D01*
X9430Y7999D01*
X9439Y7989D01*
X9444Y7976D01*
X9446Y7962D01*
X9444Y7948D01*
X9439Y7936D01*
X9430Y7925D01*
X9420Y7916D01*
X9407Y7911D01*
X9393Y7909D01*
X9340Y7909D01*
X9404Y7909D02*
X9446Y7825D01*
X9612Y8015D02*
X9624Y8013D01*
X9636Y8009D01*
X9646Y8001D01*
X9654Y7991D01*
X9658Y7979D01*
X9660Y7967D01*
X9612Y8015D02*
X9599Y8014D01*
X9587Y8010D01*
X9576Y8003D01*
X9567Y7995D01*
X9559Y7984D01*
X9554Y7973D01*
X9644Y7930D02*
X9653Y7941D01*
X9658Y7953D01*
X9660Y7967D01*
X9644Y7931D02*
X9554Y7825D01*
X9660Y7825D01*
X11399Y7825D02*
X11441Y7825D01*
X11399Y7825D02*
X11388Y7826D01*
X11378Y7831D01*
X11369Y7837D01*
X11363Y7846D01*
X11358Y7856D01*
X11357Y7867D01*
X11357Y7973D01*
X11358Y7984D01*
X11363Y7994D01*
X11369Y8003D01*
X11378Y8009D01*
X11388Y8014D01*
X11399Y8015D01*
X11441Y8015D01*
X11538Y7973D02*
X11591Y8015D01*
X11591Y7825D01*
X11643Y7825D02*
X11538Y7825D01*
D19*
X11130Y8291D03*
D20*
X11327Y9591D02*
X11563Y9591D01*
X11563Y9197D01*
X11563Y8803D02*
X11563Y8409D01*
X11327Y8409D01*
X9673Y8409D02*
X9437Y8409D01*
X9437Y8803D01*
X9437Y9197D02*
X9437Y9591D01*
X9673Y9591D01*
D15*
X10343Y9591D02*
X10345Y9614D01*
X10350Y9637D01*
X10359Y9659D01*
X10370Y9679D01*
X10385Y9698D01*
X10402Y9714D01*
X10422Y9727D01*
X10443Y9737D01*
X10465Y9744D01*
X10488Y9748D01*
X10512Y9748D01*
X10535Y9744D01*
X10557Y9737D01*
X10579Y9727D01*
X10598Y9714D01*
X10615Y9698D01*
X10630Y9679D01*
X10641Y9659D01*
X10650Y9637D01*
X10655Y9614D01*
X10657Y9591D01*
D21*
X9545Y9749D02*
X9545Y9879D01*
X9545Y9749D02*
X9547Y9736D01*
X9552Y9724D01*
X9560Y9714D01*
X9570Y9706D01*
X9582Y9701D01*
X9595Y9699D01*
X9608Y9701D01*
X9620Y9706D01*
X9630Y9714D01*
X9638Y9724D01*
X9643Y9736D01*
X9645Y9749D01*
X9645Y9879D01*
X9731Y9839D02*
X9781Y9879D01*
X9781Y9699D01*
X9731Y9699D02*
X9831Y9699D01*
D15*
X3441Y11325D02*
X3399Y11325D01*
X3388Y11326D01*
X3378Y11331D01*
X3369Y11337D01*
X3363Y11346D01*
X3358Y11356D01*
X3357Y11367D01*
X3357Y11473D01*
X3358Y11484D01*
X3363Y11494D01*
X3369Y11503D01*
X3378Y11509D01*
X3388Y11514D01*
X3399Y11515D01*
X3441Y11515D01*
X3596Y11515D02*
X3608Y11513D01*
X3620Y11509D01*
X3630Y11501D01*
X3638Y11491D01*
X3642Y11479D01*
X3644Y11467D01*
X3596Y11515D02*
X3583Y11514D01*
X3571Y11510D01*
X3560Y11503D01*
X3551Y11495D01*
X3543Y11484D01*
X3538Y11473D01*
X3627Y11430D02*
X3636Y11441D01*
X3641Y11453D01*
X3643Y11467D01*
X3628Y11431D02*
X3538Y11325D01*
X3643Y11325D01*
X5399Y11325D02*
X5441Y11325D01*
X5399Y11325D02*
X5388Y11326D01*
X5378Y11331D01*
X5369Y11337D01*
X5363Y11346D01*
X5358Y11356D01*
X5357Y11367D01*
X5357Y11473D01*
X5358Y11484D01*
X5363Y11494D01*
X5369Y11503D01*
X5378Y11509D01*
X5388Y11514D01*
X5399Y11515D01*
X5441Y11515D01*
X5538Y11325D02*
X5591Y11325D01*
X5605Y11327D01*
X5618Y11332D01*
X5628Y11341D01*
X5637Y11352D01*
X5642Y11364D01*
X5644Y11378D01*
X5642Y11392D01*
X5637Y11405D01*
X5628Y11415D01*
X5618Y11424D01*
X5605Y11429D01*
X5591Y11431D01*
X5601Y11515D02*
X5538Y11515D01*
X5601Y11515D02*
X5613Y11513D01*
X5624Y11508D01*
X5633Y11501D01*
X5639Y11490D01*
X5643Y11479D01*
X5643Y11467D01*
X5639Y11456D01*
X5633Y11445D01*
X5624Y11438D01*
X5613Y11433D01*
X5601Y11431D01*
X5559Y11431D01*
M02*
